<svg xmlns="http://www.w3.org/2000/svg" xmlns:xlink="http://www.w3.org/1999/xlink" version="1.1" id="Capa_1" x="0px" y="0px" width="100px" height="100px" viewBox="0 0 100 100" enable-background="new 0 0 100 100" xml:space="preserve">
<g id="Capa_29">
	<g>
		<path d="M78.553,27.22c1.622-1.527,1.274-3.498-0.771-4.378c-2.047-0.881-2.902-3.23-1.899-5.22    c1.001-1.99,0.001-3.724-2.224-3.851c-2.227-0.127-3.832-2.043-3.571-4.256c0.263-2.213-1.271-3.499-3.403-2.856    c-2.134,0.642-4.299-0.608-4.811-2.777s-2.393-2.854-4.18-1.521c-1.784,1.333-4.246,0.898-5.469-0.965    c-1.224-1.862-3.226-1.862-4.448,0c-1.223,1.863-3.684,2.298-5.469,0.965c-1.785-1.333-3.667-0.648-4.178,1.521    c-0.513,2.169-2.677,3.419-4.811,2.777c-2.135-0.643-3.667,0.644-3.405,2.856c0.261,2.213-1.346,4.129-3.57,4.256    c-2.226,0.127-3.227,1.86-2.224,3.851c1.004,1.989,0.147,4.339-1.899,5.22c-2.047,0.88-2.395,2.851-0.772,4.378    c1.623,1.527,1.623,4.028,0,5.555c-1.623,1.527-1.275,3.496,0.772,4.377c2.047,0.882,2.903,3.23,1.899,5.22    c-1.003,1.99-0.002,3.723,2.224,3.852c2.225,0.127,3.831,2.041,3.57,4.254c-0.262,2.213,1.271,3.499,3.405,2.857    c2.134-0.642,4.298,0.608,4.811,2.779c0.511,2.168,2.393,2.852,4.178,1.519c1.785-1.333,4.246-0.898,5.469,0.965    c1.223,1.862,3.225,1.862,4.448,0c1.221-1.863,3.685-2.298,5.469-0.965c1.787,1.333,3.668,0.649,4.18-1.519    c0.512-2.171,2.677-3.421,4.811-2.778c2.133,0.643,3.666-0.645,3.403-2.857c-0.261-2.213,1.347-4.128,3.571-4.255    c2.225-0.129,3.225-1.861,2.224-3.852c-1.003-1.989-0.147-4.338,1.899-5.22c2.047-0.881,2.395-2.85,0.771-4.377    C76.93,31.248,76.93,28.747,78.553,27.22z M50,51.436c-11.72,0-21.222-9.5-21.222-21.221c0-11.72,9.502-21.222,21.222-21.222    c11.721,0,21.223,9.502,21.223,21.222C71.223,41.935,61.721,51.436,50,51.436z"/>
		<path d="M50,12.124c-9.99,0-18.087,8.101-18.087,18.091c0,9.991,8.097,18.09,18.087,18.09c9.988,0,18.089-8.099,18.089-18.09    C68.089,20.225,59.988,12.124,50,12.124z M53.301,15.524c1.1,0.245,2.174,0.616,3.188,1.103l-0.475,0.994    c-0.941-0.45-1.935-0.795-2.951-1.021L53.301,15.524z M49.952,15.161l0.004,1.101c-1.048,0.005-2.091,0.124-3.102,0.356    l-0.247-1.073C47.697,15.294,48.823,15.164,49.952,15.161z M43.429,16.668l0.482,0.991c-0.936,0.454-1.824,1.016-2.639,1.67    l-0.689-0.859C41.462,17.765,42.419,17.158,43.429,16.668z M38.208,20.858l0.862,0.685c-0.648,0.819-1.207,1.71-1.657,2.646    l-0.992-0.477C36.905,22.703,37.507,21.742,38.208,20.858z M34.946,30.215c0-1.118,0.123-2.234,0.366-3.317l1.077,0.241    c-0.227,1.004-0.341,2.039-0.341,3.076l-1.103,0.029L34.946,30.215L34.946,30.215z M36.444,36.771    c-0.489-1.013-0.866-2.082-1.117-3.179l1.072-0.247c0.235,1.016,0.584,2.006,1.039,2.944L36.444,36.771z M40.63,41.998    c-0.879-0.701-1.682-1.501-2.386-2.38l0.86-0.688c0.652,0.813,1.396,1.556,2.213,2.206L40.63,41.998z M46.668,44.898    c-1.098-0.248-2.169-0.621-3.183-1.11l0.477-0.992c0.939,0.451,1.932,0.798,2.947,1.027L46.668,44.898z M50.017,45.268    l-0.002-1.102c1.049-0.001,2.092-0.119,3.103-0.35l0.245,1.074C52.271,45.14,51.146,45.266,50.017,45.268z M50.446,34.255    l-5.293,3.844l2.024-6.22l-5.296-3.848h6.543l2.021-6.222l2.023,6.222h6.544l-5.294,3.848l2.021,6.22L50.446,34.255z     M56.542,43.776l-0.479-0.993c0.937-0.451,1.826-1.012,2.642-1.664l0.688,0.86C58.512,42.684,57.552,43.288,56.542,43.776z     M58.661,19.276l0.685-0.865c0.879,0.698,1.684,1.497,2.391,2.374l-0.858,0.691C60.223,20.662,59.477,19.922,58.661,19.276z     M61.771,39.596l-0.86-0.688c0.649-0.814,1.21-1.704,1.663-2.643l0.992,0.479C63.078,37.757,62.475,38.717,61.771,39.596z     M65.055,30.215c0,1.129-0.125,2.256-0.375,3.348l-1.074-0.244c0.229-1.012,0.347-2.056,0.347-3.104l1.103-0.062V30.215    L65.055,30.215z M64.667,26.805l-1.074,0.251c-0.233-1.017-0.586-2.006-1.043-2.943l0.99-0.482    C64.034,24.642,64.411,25.71,64.667,26.805z"/>
		<path d="M37.063,58.462c-0.542-2.301-2.792-3.636-5.054-3.065L22.487,94.35l7.986-1.67l7.823-32.238    C37.724,60.044,37.278,59.379,37.063,58.462z"/>
		<path d="M52.422,61.17c-1.331,2.03-3.513,2.03-4.847,0c-0.031-0.048-0.073-0.084-0.105-0.131l-8.25,33.994L45.595,100    l9.947-40.689C54.323,59.413,53.162,60.04,52.422,61.17z"/>
		<path d="M41.614,60.117c-0.77,0.574-1.551,0.793-2.254,0.717l-7.665,31.589l3.288-0.688l3.26,2.539l8.295-34.181    C45.113,59.039,43.142,58.979,41.614,60.117z"/>
		<path d="M62.939,58.462c-0.558,2.363-2.606,3.108-4.553,1.655c-0.369-0.273-0.766-0.457-1.173-0.598l-6.353,25.99L54.404,100    l10.611-8.266l12.496,2.615L67.99,55.396C65.729,54.827,63.482,56.162,62.939,58.462z"/>
	</g>
</g>
</svg>