<svg xmlns="http://www.w3.org/2000/svg" xmlns:xlink="http://www.w3.org/1999/xlink" version="1.1" id="Layer_1" x="0px" y="0px" width="100px" height="100px" viewBox="0 0 100 100" enable-background="new 0 0 100 100" xml:space="preserve">
<path fill="#000000" d="M17.704,28.219c9.201-1.917,14.117-1.917,23.32,0"/>
<path fill="#000000" d="M40.498,30.741c-8.845-1.84-13.423-1.843-22.269,0l-1.052-5.043c9.566-1.992,14.803-1.992,24.372,0  L40.498,30.741z"/>
<path fill="#000000" d="M17.704,38.723c9.201-1.917,14.122-1.917,23.323,0"/>
<path fill="#000000" d="M40.501,41.245c-8.847-1.844-13.425-1.844-22.271,0l-1.052-5.043c9.569-1.992,14.806-1.992,24.375,0  L40.501,41.245z"/>
<path fill="#000000" d="M17.704,49.223c9.201-1.914,14.119-1.914,23.32,0"/>
<path fill="#000000" d="M40.5,51.744c-8.847-1.841-13.425-1.841-22.271,0l-1.049-5.043c9.566-1.99,14.803-1.99,24.369,0L40.5,51.744  z"/>
<path fill="#000000" d="M17.704,59.725c9.201-1.919,14.117-1.914,23.32,0.003"/>
<path fill="#000000" d="M40.498,62.248c-8.858-1.842-13.436-1.845-22.269-0.003l-1.052-5.041c9.556-1.992,14.793-1.995,24.372,0.003  L40.498,62.248z"/>
<path fill="#000000" d="M17.704,70.231c9.201-1.919,14.122-1.914,23.328,0"/>
<path fill="#000000" d="M40.507,72.755c-8.859-1.844-13.441-1.844-22.277-0.003l-1.052-5.041c9.554-1.997,14.794-1.994,24.378-0.002  L40.507,72.755z"/>
<path fill="#000000" d="M58.775,28.219c9.201-1.917,14.116-1.917,23.32,0"/>
<path fill="#000000" d="M81.57,30.741c-8.845-1.841-13.425-1.841-22.27,0l-1.051-5.043c9.568-1.992,14.808-1.99,24.371,0  L81.57,30.741z"/>
<path fill="#000000" d="M58.775,38.723c9.201-1.917,14.119-1.917,23.323,0"/>
<path fill="#000000" d="M81.572,41.245c-8.847-1.845-13.43-1.843-22.271,0l-1.051-5.043c9.563-1.992,14.801-1.995,24.374,0  L81.572,41.245z"/>
<path fill="#000000" d="M58.775,49.223c9.201-1.914,14.116-1.914,23.323,0"/>
<path fill="#000000" d="M81.575,51.744c-8.852-1.836-13.428-1.838-22.274,0l-1.051-5.043c9.573-1.99,14.808-1.989,24.371,0  L81.575,51.744z"/>
<path fill="#000000" d="M58.772,59.725c9.204-1.919,14.117-1.914,23.323,0.003"/>
<path fill="#000000" d="M81.57,62.248c-8.857-1.842-13.44-1.845-22.271-0.003l-1.052-5.041c9.559-1.992,14.796-1.989,24.374,0  L81.57,62.248z"/>
<path fill="#000000" d="M58.772,70.231c9.202-1.919,14.122-1.914,23.326,0"/>
<path fill="#000000" d="M81.572,72.755c-8.861-1.847-13.442-1.844-22.273-0.003l-1.052-5.041c9.559-1.997,14.798-1.992,24.377-0.002  L81.572,72.755z"/>
<line fill="#000000" x1="49.901" y1="15.163" x2="49.901" y2="89.824"/>
<path fill="#000000" d="M72.371,4.924c-7.728,0-15.452,1.663-22.621,4.987c-7.162-3.326-14.885-4.987-22.607-4.987  c-7.728,0-15.454,1.663-22.62,4.987c0,26.256,0,58.91,0,85.166c7.163-3.325,14.887-4.988,22.611-4.988  c7.726,0,15.451,1.663,22.616,4.988c7.166-3.325,14.889-4.988,22.611-4.988c7.725,0,15.449,1.663,22.616,4.988  c0-26.256,0-58.91,0-85.166C87.815,6.585,80.091,4.924,72.371,4.924z M12.25,84.199V15.127c4.782-1.627,9.852-2.477,14.893-2.477  c6.482,0,13,1.413,18.895,4.072V85.36c-6.097-1.963-12.514-2.999-18.903-2.999C22.136,82.361,17.117,82.987,12.25,84.199z   M87.25,84.199c-4.87-1.212-9.891-1.838-14.889-1.838c-6.281,0-12.592,1.004-18.597,2.904V16.591  c5.892-2.605,12.145-3.94,18.606-3.94c5.038,0,10.102,0.848,14.879,2.475V84.199z"/>
</svg>