<?xml version="1.0" encoding="utf-8"?>
<!-- Generator: Adobe Illustrator 18.1.1, SVG Export Plug-In . SVG Version: 6.00 Build 0)  -->
<svg version="1.1" id="Layer_1" xmlns="http://www.w3.org/2000/svg" xmlns:xlink="http://www.w3.org/1999/xlink" x="0px" y="0px"
	 viewBox="0 0 1080 1440" enable-background="new 0 0 1080 1440" xml:space="preserve">
<g id="Layer_2" display="none">
	<rect y="273.5" display="inline" fill="#020000" stroke="#000000" stroke-miterlimit="10" width="1080" height="885.9"/>
</g>
<g id="Layer_1_2_">
	<g id="Layer_1_1_" display="none">
		<g display="inline">
			<polygon fill="#FFFFFF" points="322.4,721.1 324.7,733.8 324.7,733.8 			"/>
			<polygon fill="#FFFFFF" points="264.2,700.8 264.2,708.7 269.6,703.9 			"/>
			<polygon fill="#FFFFFF" points="270.4,672.7 266.1,666.7 264.2,666.7 264.2,670.1 268.6,676.9 			"/>
			<path fill="#FFFFFF" d="M272.3,716.8l1.1-10.8l-2.8-1.6l-6.4,5.3v14.5c1.8-1.6,4.4-4.2,7.2-6.7
				C271.8,717.4,272.1,717.2,272.3,716.8z"/>
			<polygon fill="#FFFFFF" points="273.2,666.7 268.1,666.7 271.2,671.1 			"/>
			<path fill="#FFFFFF" d="M282.2,674.6l13.2-6.2l-0.2-1.8h-13.9c0.2,1.6,0.4,3.9,0.7,6.5C282,673.8,282,674.3,282.2,674.6z"/>
			<path fill="#FFFFFF" d="M286.8,692.8l-0.2-0.5l10.8-3.2l-0.5-4.1c-0.7-0.2-4.2-0.7-7.8-2.3c-5.3-2.3-8.5-5.6-9-9.5
				c-0.5-2.8-0.5-5.1-0.7-6.7h-4.6l-2.8,6L286.8,692.8z"/>
			<path fill="#FFFFFF" d="M282.9,676.1c2.6,4.6,9.9,6.7,13.1,7.4l-7.2-10.1L282.9,676.1z"/>
			<polygon fill="#FFFFFF" points="264.2,673.8 264.2,697.9 273.2,687.5 			"/>
			<polygon fill="#FFFFFF" points="269.1,694.6 264.5,699.9 270.4,703.4 273.7,700.6 			"/>
			<path fill="#FFFFFF" d="M281.3,709.2c1.4-1.2,2.8-2.1,3.9-3l-11.1-17.3l-4.2,4.9l5.1,6.7l-3.7,3.2l9.9,5.6
				C281.1,709.2,281.3,709.2,281.3,709.2z"/>
			<path fill="#FFFFFF" d="M288.5,704.5c1.1-0.5,2.1-1.2,3.4-1.6l-20.3-28.4l-1.9,4.2h-0.2l17.3,26.8
				C287.5,704.8,288.2,704.5,288.5,704.5z"/>
			<polygon fill="#FFFFFF" points="290.3,672.5 296.6,681.7 295.6,670.2 			"/>
			<path fill="#FFFFFF" d="M275.3,707.1l-0.7,7.9c1.6-1.4,3.4-2.8,4.6-4.1c0.4-0.4,0.7-0.5,1.2-1.1L275.3,707.1z"/>
			<path fill="#FFFFFF" d="M298.6,699.9l-1.1-9.9l-10.8,3l6.4,8.8C295.1,701.3,296.8,700.6,298.6,699.9z"/>
			<polygon fill="#FFFFFF" points="317.5,674.3 317.5,666.7 305.3,666.7 305.6,673.2 			"/>
			<path fill="#FFFFFF" d="M300.5,699.4c3-0.7,5.6-1.2,8.6-1.4l1.4-7.8l-10.9-0.5L300.5,699.4z"/>
			<polygon fill="#FFFFFF" points="322.2,674.6 324.2,666.7 319.1,666.7 319.1,674.5 			"/>
			<polygon fill="#FFFFFF" points="331.6,675.4 334.1,666.7 325.8,666.7 323.8,674.8 			"/>
			<path fill="#FFFFFF" d="M328.9,684.9l-7.2-0.7l-3.5,15c0,0,0.2,0,0.4,0l0,0c0,0,0,0,0.2,0c4.4,1.2,8.6,3.5,12.4,6.9l7.4-18.7
				l-11.6,5.6L328.9,684.9z"/>
			<path fill="#FFFFFF" d="M340.9,719.5l7.1-7.9l-6.5-6c-3.2,3.2-6.2,5.6-7.9,7.4L340.9,719.5z"/>
			<polygon fill="#FFFFFF" points="349.8,727.1 349.8,712.1 342.2,720.4 			"/>
			<polygon fill="#FFFFFF" points="342.5,676.4 346.4,666.7 335.6,666.7 333.2,675.5 			"/>
			<path fill="#FFFFFF" d="M342.4,705l6.5,5.8l1.1-1.1v-12.7C347.6,699.7,344.8,702.5,342.4,705z"/>
			<path fill="#FFFFFF" d="M340.4,686.5l-4.9,12.4l5.1,4.6c3.4-3.4,7.1-7.1,9-10.1v-5.1l-9-1.8H340.4z"/>
			<polygon fill="#FFFFFF" points="340.9,684.7 349.8,686.6 349.8,678.5 343.6,678.2 			"/>
			<polygon fill="#FFFFFF" points="348.2,666.7 344.3,676.4 349.8,676.9 349.8,666.7 			"/>
			<path fill="#FFFFFF" d="M332.1,707.3c0.7,0.7,1.4,1.4,2.3,2.3c1.6-1.4,3.5-3.4,5.6-5.3l-4.9-4.4L332.1,707.3z"/>
			<path fill="#FFFFFF" d="M316.4,698.8l3.5-14.8l-6.4-0.5l-3,14.8C312.5,698.1,314.5,698.3,316.4,698.8z"/>
			<polygon fill="#FFFFFF" points="310.8,689.5 313.4,675.4 297.9,674.3 299.5,689.1 			"/>
			<polygon fill="#FFFFFF" points="337.9,685.8 330.5,685.1 329.1,690.2 			"/>
			<polygon fill="#FFFFFF" points="331.2,676.9 323.5,676.2 321.9,682.6 329.5,683.3 			"/>
			<polygon fill="#FFFFFF" points="330.9,683.6 339.4,684.4 342,678 332.6,677.1 			"/>
			<polygon fill="#FFFFFF" points="321.9,676.2 315.2,675.5 313.9,681.7 320.3,682.4 			"/>
			<polygon fill="#FFFFFF" points="297.7,672.5 304.1,673.1 303.9,666.7 297.5,666.7 297.2,666.7 			"/>
			<polygon fill="#FFFFFF" points="328.8,738 349.8,735.4 349.8,733.2 328.8,735 			"/>
			<path fill="#FFFFFF" d="M326.8,733.6v-15c-1.4,0.9-2.8,1.8-4.4,2.5l2.3,12.7L326.8,733.6z"/>
			<path fill="#FFFFFF" d="M331.6,714.7L331.6,714.7c-0.9,0.7-1.8,1.4-3,2.3v15.9l10.8-12l-7.6-6.5
				C331.9,714.7,331.8,714.7,331.6,714.7z"/>
			<polygon fill="#FFFFFF" points="326.8,735.2 324.9,735.4 316.4,736.1 317.3,739.4 325.6,738.4 326.8,738.2 			"/>
			<polygon fill="#FFFFFF" points="330.7,733.2 349.8,731.6 349.8,729.7 340.8,721.9 			"/>
			<path fill="#FFFFFF" d="M297.5,733.9l3.4-9.9c-7.2-1.2-14.5-4.8-21.5-10.4c-1.6,1.4-3.4,3-5.1,4.4l-1.4,15l16.4-2.1L297.5,733.9z
				"/>
			<polygon fill="#FFFFFF" points="264.2,747.5 264.2,752.3 291,752.3 294,743.8 			"/>
			<path fill="#FFFFFF" d="M271.9,720.2c-3,2.6-5.6,5.1-7.9,7.2v0.4l0,0l0,0v6.5l6.5-0.9L271.9,720.2z"/>
			<polygon fill="#FFFFFF" points="297,735.4 289.1,732.5 279.7,733.8 280.6,743.8 294.7,742.1 			"/>
			<polygon fill="#FFFFFF" points="278.8,733.9 264.2,735.9 264.2,745.8 279.7,743.8 			"/>
			<polygon fill="#FFFFFF" points="296.3,743.6 293.1,752.3 307.2,752.3 307.6,742.1 			"/>
			<polygon fill="#FFFFFF" points="308.5,742.1 308.1,752.3 319.6,752.3 316.8,741 			"/>
			<polygon fill="#FFFFFF" points="317.6,741 320.5,752.3 320.3,752.3 326.8,752.3 326.8,739.9 			"/>
			<polygon fill="#FFFFFF" points="349.8,752.3 349.8,741.2 335.5,752.3 			"/>
			<polygon fill="#FFFFFF" points="298.8,736.2 296.8,741.9 307.6,740.5 307.8,736.8 301.8,737.3 			"/>
			<polygon fill="#FFFFFF" points="328.8,752.3 334.1,752.3 349.8,740.1 349.8,737.1 328.8,739.6 			"/>
			<path fill="#FFFFFF" d="M322.4,721.1c-4.2,2.1-9.5,3.7-15.5,3.7c-1.4,0-2.6,0-4.1-0.4l-3.5,10.2l2.6,1.1l22.6-1.9L322.4,721.1z"
				/>
			<polygon fill="#FFFFFF" points="308.6,736.8 308.5,740.5 316.2,739.4 315.5,736.1 			"/>
			<path fill="#FFFFFF" d="M323.8,703.8c1.4,1.8,2.1,3.7,2.3,5.6c0.4,3.2-0.9,5.8-2.1,7.9c4.2-2.5,7.2-5.5,8.6-6.9
				C329.6,708,326.6,705.5,323.8,703.8z"/>
			<path fill="#FFFFFF" d="M293.1,711.9c-0.2-3.4,1.4-6.4,3.2-8.6c-2.1,0.9-4.2,1.9-6.5,3.2c-3.4,1.9-6.2,4.1-7.8,5.1
				c-0.4,0.2-0.5,0.5-0.7,0.5c6,4.6,11.8,7.8,17.8,9.2C295.2,718.6,293.3,715.2,293.1,711.9z"/>
			<path fill="#FFFFFF" d="M316.9,701.3L316.9,701.3c-2.3-0.5-4.6-0.9-7.1-0.9c-2.8,0-5.6,0.5-8.6,1.1l0,0c0,0-6.2,4.6-5.6,10.1
				c0.2,3.7,3.2,7.2,8.8,10.6l-0.2,0.2c0.7,0,1.4,0.2,2.3,0.2c4.4,0,8.5-1.1,11.8-2.3l0,0c0,0,5.3-4.8,4.8-10.2
				C323.3,706.6,321,703.8,316.9,701.3z M309.7,718.8c-3.7,0-6.9-3.2-6.9-6.9s3.2-6.9,6.9-6.9c3.7,0,6.9,3.2,6.9,6.9
				S313.4,718.8,309.7,718.8z"/>
			<path fill="#FFFFFF" d="M309.7,706.9c-2.8,0-5.1,2.3-5.1,5.1c0,2.8,2.3,5.1,5.1,5.1c2.8,0,5.1-2.3,5.1-5.1
				C314.8,709.2,312.5,706.9,309.7,706.9z"/>
			<polygon fill="#FFFFFF" points="335.5,752.3 349.8,741.2 349.8,740.1 334.1,752.3 			"/>
			<path fill="#FFFFFF" d="M309.7,705.2c-3.7,0-6.9,3.2-6.9,6.9c0,3.7,3.2,6.9,6.9,6.9c3.7,0,6.9-3.2,6.9-6.9
				C316.6,708.4,313.4,705.2,309.7,705.2z M309.7,717c-2.8,0-5.1-2.3-5.1-5.1s2.3-5.1,5.1-5.1c2.8,0,5.1,2.3,5.1,5.1
				S312.5,717,309.7,717z"/>
			<path fill="#FFFFFF" d="M348.2,666.7h-1.6l-3.9,9.9l-9.4-0.7l2.5-8.8h-1.6l-2.5,8.8l-7.8-0.5l2.1-8.1h-1.8l-1.9,7.9l-3.2-0.4
				v-7.8h-1.4v7.6l-11.8-1.1l-0.2-6.5h-1.4l0.2,6.4l-6.2-0.5l0,0l-0.5-6h-0.5h-1.4l0.2,1.8l-13.2,6.2c-0.2-0.5-0.4-0.9-0.4-1.4
				c-0.5-2.6-0.5-4.9-0.7-6.5h-1.6c0.2,1.6,0.5,4.1,0.7,6.7c0.5,3.9,3.5,7.2,9,9.5c3.5,1.4,7.1,2.3,7.8,2.3l0.5,4.1l-10.8,3.2
				l0.2,0.5l-14.3-20.1l2.8-6h-1.8l-2.1,4.4l-3.4-4.4H267l4.4,6.2l-1.9,4.2l-4.4-6.9v3.5l9,13.9l-9,10.2v3l5.5,3.2l-5.5,4.8v1.2
				l6.4-5.3l2.8,1.6l-1.1,10.8c-0.4,0.4-0.5,0.5-0.9,0.7c-3,2.6-5.5,5.1-7.2,6.7v1.4v0.4v1.2c2.1-2.1,4.9-4.6,7.9-7.2l-1.4,13.2
				l-6.5,0.9v1.6l14.6-1.9l0.9,10.1l-16.1,1.6v1.6l30-3.5l-3,8.6h1.4h0.5l3.2-8.8l11.3-1.4l-0.4,10.2h0.9l0.4-10.4l8.3-1.1l2.8,11.3
				h0.9l0,0l-2.8-11.5l9-1.2v12.7l0,0h1.9l0,0v-12.9l21-2.5v-0.5v-1.1l-21,2.5V735l21-1.8v-1.6l-19.1,1.6l10.1-11.3l8.8,7.8v-1.4
				v-1.4l-7.6-6.5l7.6-8.3v-2.3l-1.1,1.1l-6.5-5.8c2.6-2.5,5.3-5.3,7.4-7.9v-3.5c-2.1,3-5.6,6.7-9,10.1l-5.1-4.6l4.9-12.4l0.4-0.2
				l9,1.8v-1.6l-8.8-1.8l2.6-6.7l6.2,0.5v-1.6l-5.5-0.5L348.2,666.7z M323.5,676.2l7.6,0.5l-1.8,6.4l-7.2-0.7L323.5,676.2z
				 M330.5,685.1l7.4,0.7l-8.8,4.2L330.5,685.1z M315.2,675.5l6.9,0.5l-1.4,6.2l-6.5-0.7L315.2,675.5z M320.1,683.8l-3.5,14.8
				c-1.9-0.5-3.7-0.5-5.8-0.5l3-14.8L320.1,683.8z M274.4,714.9l0.7-7.9l5.1,2.8c-0.5,0.5-1.1,0.7-1.2,1.1
				C277.8,712.1,276.2,713.5,274.4,714.9z M318.7,720.2L318.7,720.2c-3.4,1.4-7.4,2.3-11.8,2.3c-0.7,0-1.4,0-2.3-0.2l0.2-0.2
				c-5.6-3.4-8.6-6.7-8.8-10.6c-0.4-5.6,5.6-10.1,5.6-10.1l0,0c3-0.7,5.8-1.1,8.6-1.1c2.3,0,4.8,0.4,7.1,0.9l0,0
				c4.2,2.5,6.2,5.3,6.7,8.6C324,715.2,318.9,720,318.7,720.2z M281.8,711.5c1.6-1.4,4.2-3.4,7.8-5.1c2.3-1.2,4.4-2.3,6.5-3.2
				c-1.6,2.1-3.4,5.1-3.2,8.6c0.2,3.5,2.1,6.7,5.8,9.7c-6-1.4-11.8-4.6-17.8-9.2C281.5,712.1,281.6,711.9,281.8,711.5z M309,698.1
				c-2.8,0-5.6,0.5-8.6,1.4l-1.1-9.5l10.9,0.5L309,698.1z M323.8,717.5c1.4-2.1,2.3-4.9,2.1-7.9c-0.2-2.1-1.1-4.1-2.3-5.6
				c3.2,1.6,6.2,4.1,8.8,7.1C331.2,712.1,328.2,715.1,323.8,717.5z M313.4,675.4l-2.8,14.1l-11.3-0.5l-1.4-14.8L313.4,675.4z
				 M282.9,676.1l6-2.6l7.2,10.1C292.9,682.8,285.7,680.6,282.9,676.1z M290.3,672.5l5.3-2.5l1.2,11.6L290.3,672.5z M297.5,690.2
				l1.1,9.9c-1.8,0.5-3.5,1.2-5.3,2.1l-6.4-8.8L297.5,690.2z M269.5,678.4L269.5,678.4l2.1-4.1l20.3,28.4c-1.1,0.5-2.1,1.1-3.4,1.6
				c-0.5,0.2-1.1,0.5-1.8,0.9L269.5,678.4z M270.4,703.4l-6-3.4l4.6-5.3l4.6,5.8L270.4,703.4z M271.2,703.8l3.7-3.2l-5.1-6.7
				l4.2-4.9l11.1,17.3c-1.1,0.7-2.3,1.8-3.9,3c0,0-0.2,0-0.2,0.2L271.2,703.8z M272.6,733.2l1.4-15c1.8-1.4,3.5-3.2,5.1-4.4
				c7.1,5.6,14.5,9.2,21.5,10.4l-3.4,9.9l-8.3-3.2L272.6,733.2z M280.6,743.8l-0.9-10.1l9.2-1.2l7.9,3l-2.3,6.7L280.6,743.8z
				 M307.6,740.5l-10.8,1.4l1.9-5.6l3,1.1l5.8-0.5V740.5z M302.1,735.7l-2.6-1.1l3.5-10.2c1.4,0.2,2.6,0.4,4.1,0.4
				c6.2,0,11.3-1.6,15.5-3.7l0,0c1.6-0.7,3.2-1.6,4.4-2.5v15l-2.3,0.2l0,0L302.1,735.7z M308.5,740.5v-3.7l7.1-0.5l0.9,3.4
				L308.5,740.5z M317.3,739.4l-0.9-3.4l8.5-0.7l1.9-0.2v3.2l-1.4,0.2L317.3,739.4z M328.8,732.9V717c1.1-0.9,2.1-1.6,2.8-2.3l0,0
				c0,0,0.2-0.2,0.5-0.5l7.6,6.5L328.8,732.9z M341.6,705.7l6.5,6l-7.1,7.9l-7.2-6.4C335.5,711.4,338.5,708.7,341.6,705.7z
				 M339.9,704.1c-2.1,2.1-4.1,3.9-5.6,5.3c-0.7-0.7-1.4-1.4-2.3-2.3l3-7.6L339.9,704.1z M330.7,706.2c-3.9-3.4-7.9-5.6-12.4-6.9
				c0,0,0,0-0.2,0l0,0c0,0-0.2,0-0.4,0l3.5-15l7.2,0.7l-2.3,8.3l11.6-5.6L330.7,706.2z M339.4,684.4l-8.5-0.9l1.8-6.4l9.4,0.7
				L339.4,684.4z"/>
			<path fill="#FFFFFF" d="M264.2,727.6L264.2,727.6C264.2,727.8,264.2,727.8,264.2,727.6L264.2,727.6z"/>
		</g>
		<rect x="363.2" y="667.8" display="inline" fill="none" width="453.2" height="46.6"/>
		
			<text transform="matrix(1 0 0 1 363.1616 681.8774)" display="inline" fill="#FFFFFF" font-family="'Raleway'" font-size="19.4785">SAVE THE DATE: </text>
		
			<text transform="matrix(1 0 0 1 520.741 681.8774)" display="inline" fill="#FFFFFF" font-family="'Raleway-SemiBold'" font-size="19.4785">FESTIVAL 2015 </text>
		
			<text transform="matrix(1 0 0 1 363.1616 705.2518)" display="inline" fill="#FFFFFF" font-family="'Raleway-SemiBold'" font-size="19.4785">11/5 - 11/14 </text>
		<rect x="361.9" y="736.4" display="inline" fill="none" width="309" height="25.9"/>
		
			<text transform="matrix(1 0 0 1 361.8804 745.8719)" display="inline" fill="#FFFFFF" font-family="'Raleway'" font-size="12.9858">Celebating Boston’s Strength: </text>
		
			<text transform="matrix(1 0 0 1 542.9001 745.8719)" display="inline" fill="#FFFFFF" font-family="'Raleway-SemiBold'" font-size="12.9858">Making an Impact</text>
	</g>
	<rect x="395.2" y="666.8" fill="none" width="320.8" height="122.2"/>
	<text transform="matrix(1 0 0 1 395.205 683.8868)" enable-background="new    "><tspan x="0" y="0" fill="#FFFFFF" font-family="'Raleway'" font-size="20">Add your organization to those </tspan><tspan x="0" y="24" fill="#FFFFFF" font-family="'Raleway'" font-size="20">collaborating to make Boston a </tspan><tspan x="0" y="48" fill="#FFFFFF" font-family="'Raleway'" font-size="20">capital for social impact.</tspan></text>
	<g>
		<polyline fill="none" stroke="#FFFFFF" stroke-width="1.5" stroke-miterlimit="10" points="634.2,720 639,725.2 634.2,731 		"/>
		<polyline fill="none" stroke="#FFFFFF" stroke-width="1.5" stroke-miterlimit="10" points="626.7,720 631.6,725.2 626.7,731 		"/>
	</g>
	<g id="Layer_3" display="none">
		<rect x="298.2" y="706.1" display="inline" fill="none" width="423.4" height="58.2"/>
		
			<text transform="matrix(1 0 0 1 298.2509 715.5732)" display="inline" fill="#FFFFFF" font-family="'Raleway'" font-size="12.9858">A 5-day hyper-accelerator designed to help Boston social enterprises </text>
		
			<text transform="matrix(1 0 0 1 298.2509 731.1559)" display="inline" fill="#FFFFFF" font-family="'Raleway'" font-size="12.9858">and nonprofits understand the fundraising process and become ready </text>
		
			<text transform="matrix(1 0 0 1 298.2509 746.739)" display="inline" fill="#FFFFFF" font-family="'Raleway'" font-size="12.9858">to take on investment and grants.</text>
		<rect x="298.2" y="668.6" display="inline" fill="none" width="442.8" height="37.1"/>
		
			<text transform="matrix(1 0 0 1 298.2509 682.7968)" display="inline" fill="#FFFFFF" font-family="'Raleway-Light'" font-size="19.4785">APPLY TO </text>
		
			<text transform="matrix(1 0 0 1 395.9684 682.7968)" display="inline" fill="#FFFFFF" font-family="'Raleway-SemiBold'" font-size="19.4785">UNREASONABLE LABS BOSTON</text>
	</g>
	<g id="Layer_2_1_">
	</g>
</g>
</svg>
