<?xml version="1.0" encoding="utf-8"?>
<!-- Generator: Adobe Illustrator 17.1.0, SVG Export Plug-In . SVG Version: 6.00 Build 0)  -->
<!DOCTYPE svg PUBLIC "-//W3C//DTD SVG 1.1//EN" "http://www.w3.org/Graphics/SVG/1.1/DTD/svg11.dtd">
<svg version="1.1" xmlns="http://www.w3.org/2000/svg" xmlns:xlink="http://www.w3.org/1999/xlink" x="0px" y="0px"
	 viewBox="0 0 612 792" enable-background="new 0 0 612 792" xml:space="preserve">
<g id="Layer_2" display="none">
	<rect y="143" display="inline" fill="#020000" stroke="#000000" stroke-miterlimit="10" width="612" height="502"/>
</g>
<g id="Layer_1">
	<g id="Layer_1_1_" display="none">
		<g display="inline">
			<polygon fill="#FFFFFF" points="182.7,396.6 184,403.8 184,403.8 			"/>
			<polygon fill="#FFFFFF" points="149.7,385.1 149.7,389.6 152.8,386.9 			"/>
			<polygon fill="#FFFFFF" points="153.2,369.2 150.8,365.8 149.7,365.8 149.7,367.7 152.2,371.6 			"/>
			<path fill="#FFFFFF" d="M154.3,394.2l0.6-6.1l-1.6-0.9l-3.6,3v8.2c1-0.9,2.5-2.4,4.1-3.8C154,394.5,154.2,394.4,154.3,394.2z"/>
			<polygon fill="#FFFFFF" points="154.8,365.8 151.9,365.8 153.7,368.3 			"/>
			<path fill="#FFFFFF" d="M159.9,370.3l7.5-3.5l-0.1-1h-7.9c0.1,0.9,0.2,2.2,0.4,3.7C159.8,369.8,159.8,370.1,159.9,370.3z"/>
			<path fill="#FFFFFF" d="M162.5,380.6l-0.1-0.3l6.1-1.8l-0.3-2.3c-0.4-0.1-2.4-0.4-4.4-1.3c-3-1.3-4.8-3.2-5.1-5.4
				c-0.3-1.6-0.3-2.9-0.4-3.8h-2.6l-1.6,3.4L162.5,380.6z"/>
			<path fill="#FFFFFF" d="M160.3,371.1c1.5,2.6,5.6,3.8,7.4,4.2l-4.1-5.7L160.3,371.1z"/>
			<polygon fill="#FFFFFF" points="149.7,369.8 149.7,383.5 154.8,377.6 			"/>
			<polygon fill="#FFFFFF" points="152.5,381.6 149.9,384.6 153.2,386.6 155.1,385 			"/>
			<path fill="#FFFFFF" d="M159.4,389.9c0.8-0.7,1.6-1.2,2.2-1.7l-6.3-9.8l-2.4,2.8l2.9,3.8l-2.1,1.8l5.6,3.2
				C159.3,389.9,159.4,389.9,159.4,389.9z"/>
			<path fill="#FFFFFF" d="M163.5,387.2c0.6-0.3,1.2-0.7,1.9-0.9l-11.5-16.1l-1.1,2.4h-0.1l9.8,15.2
				C162.9,387.4,163.3,387.2,163.5,387.2z"/>
			<polygon fill="#FFFFFF" points="164.5,369.1 168.1,374.3 167.5,367.8 			"/>
			<path fill="#FFFFFF" d="M156,388.7l-0.4,4.5c0.9-0.8,1.9-1.6,2.6-2.3c0.2-0.2,0.4-0.3,0.7-0.6L156,388.7z"/>
			<path fill="#FFFFFF" d="M169.2,384.6l-0.6-5.6l-6.1,1.7l3.6,5C167.2,385.4,168.2,385,169.2,384.6z"/>
			<polygon fill="#FFFFFF" points="179.9,370.1 179.9,365.8 173,365.8 173.2,369.5 			"/>
			<path fill="#FFFFFF" d="M170.3,384.3c1.7-0.4,3.2-0.7,4.9-0.8l0.8-4.4l-6.2-0.3L170.3,384.3z"/>
			<polygon fill="#FFFFFF" points="182.6,370.3 183.7,365.8 180.8,365.8 180.8,370.2 			"/>
			<polygon fill="#FFFFFF" points="187.9,370.7 189.3,365.8 184.6,365.8 183.5,370.4 			"/>
			<path fill="#FFFFFF" d="M186.4,376.1l-4.1-0.4l-2,8.5c0,0,0.1,0,0.2,0l0,0c0,0,0,0,0.1,0c2.5,0.7,4.9,2,7,3.9l4.2-10.6l-6.6,3.2
				L186.4,376.1z"/>
			<path fill="#FFFFFF" d="M193.2,395.7l4-4.5l-3.7-3.4c-1.8,1.8-3.5,3.2-4.5,4.2L193.2,395.7z"/>
			<polygon fill="#FFFFFF" points="198.2,400 198.2,391.5 193.9,396.2 			"/>
			<polygon fill="#FFFFFF" points="194.1,371.3 196.3,365.8 190.2,365.8 188.8,370.8 			"/>
			<path fill="#FFFFFF" d="M194,387.5l3.7,3.3l0.6-0.6v-7.2C197,384.5,195.4,386.1,194,387.5z"/>
			<path fill="#FFFFFF" d="M192.9,377l-2.8,7l2.9,2.6c1.9-1.9,4-4,5.1-5.7v-2.9l-5.1-1L192.9,377z"/>
			<polygon fill="#FFFFFF" points="193.2,376 198.2,377.1 198.2,372.5 194.7,372.3 			"/>
			<polygon fill="#FFFFFF" points="197.3,365.8 195.1,371.3 198.2,371.6 198.2,365.8 			"/>
			<path fill="#FFFFFF" d="M188.2,388.8c0.4,0.4,0.8,0.8,1.3,1.3c0.9-0.8,2-1.9,3.2-3l-2.8-2.5L188.2,388.8z"/>
			<path fill="#FFFFFF" d="M179.3,384l2-8.4l-3.6-0.3l-1.7,8.4C177.1,383.6,178.2,383.7,179.3,384z"/>
			<polygon fill="#FFFFFF" points="176.1,378.7 177.6,370.7 168.8,370.1 169.7,378.5 			"/>
			<polygon fill="#FFFFFF" points="191.5,376.6 187.3,376.2 186.5,379.1 			"/>
			<polygon fill="#FFFFFF" points="187.7,371.6 183.3,371.2 182.4,374.8 186.7,375.2 			"/>
			<polygon fill="#FFFFFF" points="187.5,375.4 192.3,375.8 193.8,372.2 188.5,371.7 			"/>
			<polygon fill="#FFFFFF" points="182.4,371.2 178.6,370.8 177.9,374.3 181.5,374.7 			"/>
			<polygon fill="#FFFFFF" points="168.7,369.1 172.3,369.4 172.2,365.8 168.6,365.8 168.4,365.8 			"/>
			<polygon fill="#FFFFFF" points="186.3,406.2 198.2,404.7 198.2,403.5 186.3,404.5 			"/>
			<path fill="#FFFFFF" d="M185.2,403.7v-8.5c-0.8,0.5-1.6,1-2.5,1.4l1.3,7.2L185.2,403.7z"/>
			<path fill="#FFFFFF" d="M187.9,393L187.9,393c-0.5,0.4-1,0.8-1.7,1.3v9l6.1-6.8l-4.3-3.7C188.1,393,188,393,187.9,393z"/>
			<polygon fill="#FFFFFF" points="185.2,404.6 184.1,404.7 179.3,405.1 179.8,407 184.5,406.4 185.2,406.3 			"/>
			<polygon fill="#FFFFFF" points="187.4,403.5 198.2,402.6 198.2,401.5 193.1,397.1 			"/>
			<path fill="#FFFFFF" d="M168.6,403.9l1.9-5.6c-4.1-0.7-8.2-2.7-12.2-5.9c-0.9,0.8-1.9,1.7-2.9,2.5l-0.8,8.5l9.3-1.2L168.6,403.9z
				"/>
			<polygon fill="#FFFFFF" points="149.7,411.6 149.7,414.3 164.9,414.3 166.6,409.5 			"/>
			<path fill="#FFFFFF" d="M154.1,396.1c-1.7,1.5-3.2,2.9-4.5,4.1v0.2l0,0l0,0v3.7l3.7-0.5L154.1,396.1z"/>
			<polygon fill="#FFFFFF" points="168.3,404.7 163.8,403.1 158.5,403.8 159,409.5 167,408.5 			"/>
			<polygon fill="#FFFFFF" points="158,403.9 149.7,405 149.7,410.6 158.5,409.5 			"/>
			<polygon fill="#FFFFFF" points="167.9,409.4 166.1,414.3 174.1,414.3 174.3,408.5 			"/>
			<polygon fill="#FFFFFF" points="174.8,408.5 174.6,414.3 181.1,414.3 179.5,407.9 			"/>
			<polygon fill="#FFFFFF" points="180,407.9 181.6,414.3 181.5,414.3 185.2,414.3 185.2,407.3 			"/>
			<polygon fill="#FFFFFF" points="198.2,414.3 198.2,408 190.1,414.3 			"/>
			<polygon fill="#FFFFFF" points="169.3,405.2 168.2,408.4 174.3,407.6 174.4,405.5 171,405.8 			"/>
			<polygon fill="#FFFFFF" points="186.3,414.3 189.3,414.3 198.2,407.4 198.2,405.7 186.3,407.1 			"/>
			<path fill="#FFFFFF" d="M182.7,396.6c-2.4,1.2-5.4,2.1-8.8,2.1c-0.8,0-1.5,0-2.3-0.2l-2,5.8l1.5,0.6l12.8-1.1L182.7,396.6z"/>
			<polygon fill="#FFFFFF" points="174.9,405.5 174.8,407.6 179.2,407 178.8,405.1 			"/>
			<path fill="#FFFFFF" d="M183.5,386.8c0.8,1,1.2,2.1,1.3,3.2c0.2,1.8-0.5,3.3-1.2,4.5c2.4-1.4,4.1-3.1,4.9-3.9
				C186.8,389.2,185.1,387.8,183.5,386.8z"/>
			<path fill="#FFFFFF" d="M166.1,391.4c-0.1-1.9,0.8-3.6,1.8-4.9c-1.2,0.5-2.4,1.1-3.7,1.8c-1.9,1.1-3.5,2.3-4.4,2.9
				c-0.2,0.1-0.3,0.3-0.4,0.3c3.4,2.6,6.7,4.4,10.1,5.2C167.3,395.2,166.2,393.3,166.1,391.4z"/>
			<path fill="#FFFFFF" d="M179.6,385.4L179.6,385.4c-1.3-0.3-2.6-0.5-4-0.5c-1.6,0-3.2,0.3-4.9,0.6l0,0c0,0-3.5,2.6-3.2,5.7
				c0.1,2.1,1.8,4.1,5,6l-0.1,0.1c0.4,0,0.8,0.1,1.3,0.1c2.5,0,4.8-0.6,6.7-1.3l0,0c0,0,3-2.7,2.7-5.8
				C183.2,388.4,181.9,386.8,179.6,385.4z M175.5,395.3c-2.1,0-3.9-1.8-3.9-3.9s1.8-3.9,3.9-3.9c2.1,0,3.9,1.8,3.9,3.9
				S177.6,395.3,175.5,395.3z"/>
			<path fill="#FFFFFF" d="M175.5,388.6c-1.6,0-2.9,1.3-2.9,2.9s1.3,2.9,2.9,2.9c1.6,0,2.9-1.3,2.9-2.9S177.1,388.6,175.5,388.6z"/>
			<polygon fill="#FFFFFF" points="190.1,414.3 198.2,408 198.2,407.4 189.3,414.3 			"/>
			<path fill="#FFFFFF" d="M175.5,387.6c-2.1,0-3.9,1.8-3.9,3.9s1.8,3.9,3.9,3.9c2.1,0,3.9-1.8,3.9-3.9S177.6,387.6,175.5,387.6z
				 M175.5,394.3c-1.6,0-2.9-1.3-2.9-2.9s1.3-2.9,2.9-2.9c1.6,0,2.9,1.3,2.9,2.9S177.1,394.3,175.5,394.3z"/>
			<path fill="#FFFFFF" d="M197.3,365.8h-0.9l-2.2,5.6l-5.3-0.4l1.4-5h-0.9l-1.4,5l-4.4-0.3l1.2-4.6h-1l-1.1,4.5l-1.8-0.2v-4.4h-0.8
				v4.3l-6.7-0.6l-0.1-3.7h-0.8l0.1,3.6l-3.5-0.3l0,0l-0.3-3.4h-0.3h-0.8l0.1,1l-7.5,3.5c-0.1-0.3-0.2-0.5-0.2-0.8
				c-0.3-1.5-0.3-2.8-0.4-3.7h-0.9c0.1,0.9,0.3,2.3,0.4,3.8c0.3,2.2,2,4.1,5.1,5.4c2,0.8,4,1.3,4.4,1.3l0.3,2.3l-6.1,1.8l0.1,0.3
				l-8.1-11.4l1.6-3.4h-1l-1.2,2.5l-1.9-2.5h-1.1l2.5,3.5l-1.1,2.4l-2.5-3.9v2l5.1,7.9l-5.1,5.8v1.7l3.1,1.8l-3.1,2.7v0.7l3.6-3
				l1.6,0.9l-0.6,6.1c-0.2,0.2-0.3,0.3-0.5,0.4c-1.7,1.5-3.1,2.9-4.1,3.8v0.8v0.2v0.7c1.2-1.2,2.8-2.6,4.5-4.1l-0.8,7.5l-3.7,0.5
				v0.9l8.3-1.1l0.5,5.7l-9.1,0.9v0.9l17-2l-1.7,4.9h0.8h0.3l1.8-5l6.4-0.8l-0.2,5.8h0.5l0.2-5.9l4.7-0.6l1.6,6.4h0.5l0,0l-1.6-6.5
				l5.1-0.7v7.2l0,0h1.1l0,0v-7.3l11.9-1.4v-0.3v-0.6l-11.9,1.4v-1.8l11.9-1v-0.9l-10.8,0.9l5.7-6.4l5,4.4v-0.8v-0.8l-4.3-3.7
				l4.3-4.7v-1.3l-0.6,0.6l-3.7-3.3c1.5-1.4,3-3,4.2-4.5v-2c-1.2,1.7-3.2,3.8-5.1,5.7l-2.9-2.6l2.8-7l0.2-0.1l5.1,1v-0.9l-5-1
				l1.5-3.8l3.5,0.3v-0.9l-3.1-0.3L197.3,365.8z M183.3,371.2l4.3,0.3l-1,3.6l-4.1-0.4L183.3,371.2z M187.3,376.2l4.2,0.4l-5,2.4
				L187.3,376.2z M178.6,370.8l3.9,0.3l-0.8,3.5l-3.7-0.4L178.6,370.8z M181.4,375.5l-2,8.4c-1.1-0.3-2.1-0.3-3.3-0.3l1.7-8.4
				L181.4,375.5z M155.5,393.1l0.4-4.5l2.9,1.6c-0.3,0.3-0.6,0.4-0.7,0.6C157.4,391.5,156.5,392.3,155.5,393.1z M180.6,396.1
				L180.6,396.1c-1.9,0.8-4.2,1.3-6.7,1.3c-0.4,0-0.8,0-1.3-0.1l0.1-0.1c-3.2-1.9-4.9-3.8-5-6c-0.2-3.2,3.2-5.7,3.2-5.7l0,0
				c1.7-0.4,3.3-0.6,4.9-0.6c1.3,0,2.7,0.2,4,0.5l0,0c2.4,1.4,3.5,3,3.8,4.9C183.6,393.3,180.7,396,180.6,396.1z M159.7,391.2
				c0.9-0.8,2.4-1.9,4.4-2.9c1.3-0.7,2.5-1.3,3.7-1.8c-0.9,1.2-1.9,2.9-1.8,4.9c0.1,2,1.2,3.8,3.3,5.5c-3.4-0.8-6.7-2.6-10.1-5.2
				C159.5,391.5,159.6,391.4,159.7,391.2z M175.1,383.6c-1.6,0-3.2,0.3-4.9,0.8l-0.6-5.4l6.2,0.3L175.1,383.6z M183.5,394.6
				c0.8-1.2,1.3-2.8,1.2-4.5c-0.1-1.2-0.6-2.3-1.3-3.2c1.8,0.9,3.5,2.3,5,4C187.7,391.5,186,393.2,183.5,394.6z M177.6,370.7l-1.6,8
				l-6.4-0.3l-0.8-8.4L177.6,370.7z M160.3,371.1l3.4-1.5l4.1,5.7C166,374.9,161.9,373.7,160.3,371.1z M164.5,369.1l3-1.4l0.7,6.6
				L164.5,369.1z M168.6,379.1l0.6,5.6c-1,0.3-2,0.7-3,1.2l-3.6-5L168.6,379.1z M152.7,372.4L152.7,372.4l1.2-2.3l11.5,16.1
				c-0.6,0.3-1.2,0.6-1.9,0.9c-0.3,0.1-0.6,0.3-1,0.5L152.7,372.4z M153.2,386.6l-3.4-1.9l2.6-3l2.6,3.3L153.2,386.6z M153.7,386.8
				l2.1-1.8l-2.9-3.8l2.4-2.8l6.3,9.8c-0.6,0.4-1.3,1-2.2,1.7c0,0-0.1,0-0.1,0.1L153.7,386.8z M154.5,403.5l0.8-8.5
				c1-0.8,2-1.8,2.9-2.5c4,3.2,8.2,5.2,12.2,5.9l-1.9,5.6l-4.7-1.8L154.5,403.5z M159,409.5l-0.5-5.7l5.2-0.7l4.5,1.7l-1.3,3.8
				L159,409.5z M174.3,407.6l-6.1,0.8l1.1-3.2l1.7,0.6l3.3-0.3V407.6z M171.2,404.9l-1.5-0.6l2-5.8c0.8,0.1,1.5,0.2,2.3,0.2
				c3.5,0,6.4-0.9,8.8-2.1l0,0c0.9-0.4,1.8-0.9,2.5-1.4v8.5l-1.3,0.1l0,0L171.2,404.9z M174.8,407.6v-2.1l4-0.3l0.5,1.9L174.8,407.6
				z M179.8,407l-0.5-1.9l4.8-0.4l1.1-0.1v1.8l-0.8,0.1L179.8,407z M186.3,403.3v-9c0.6-0.5,1.2-0.9,1.6-1.3l0,0
				c0,0,0.1-0.1,0.3-0.3l4.3,3.7L186.3,403.3z M193.6,387.9l3.7,3.4l-4,4.5l-4.1-3.6C190.1,391.1,191.8,389.6,193.6,387.9z
				 M192.6,387c-1.2,1.2-2.3,2.2-3.2,3c-0.4-0.4-0.8-0.8-1.3-1.3l1.7-4.3L192.6,387z M187.4,388.2c-2.2-1.9-4.5-3.2-7-3.9
				c0,0,0,0-0.1,0l0,0c0,0-0.1,0-0.2,0l2-8.5l4.1,0.4l-1.3,4.7l6.6-3.2L187.4,388.2z M192.3,375.8l-4.8-0.5l1-3.6l5.3,0.4
				L192.3,375.8z"/>
			<path fill="#FFFFFF" d="M149.7,400.3L149.7,400.3C149.7,400.4,149.7,400.4,149.7,400.3L149.7,400.3z"/>
		</g>
		<rect x="205.8" y="366.4" display="inline" fill="none" width="256.8" height="26.4"/>
		
			<text transform="matrix(1 0 0 1 205.7918 374.3974)" display="inline" fill="#FFFFFF" font-family="'Raleway-Regular'" font-size="11.0378">SAVE THE DATE: </text>
		
			<text transform="matrix(1 0 0 1 295.0867 374.3974)" display="inline" fill="#FFFFFF" font-family="'Raleway-SemiBold'" font-size="11.0378">FESTIVAL 2015 </text>
		
			<text transform="matrix(1 0 0 1 205.7918 387.643)" display="inline" fill="#FFFFFF" font-family="'Raleway-SemiBold'" font-size="11.0378">11/5 - 11/14 </text>
		<rect x="205.1" y="405.3" display="inline" fill="none" width="175.1" height="14.7"/>
		
			<text transform="matrix(1 0 0 1 205.0657 410.6611)" display="inline" fill="#FFFFFF" font-family="'Raleway-Regular'" font-size="7.3586">Celebating Boston’s Strength: </text>
		
			<text transform="matrix(1 0 0 1 307.6438 410.6611)" display="inline" fill="#FFFFFF" font-family="'Raleway-SemiBold'" font-size="7.3586">Making an Impact</text>
	</g>
	<rect x="236.2" y="389.5" fill="none" width="111.4" height="13.4"/>
	<text transform="matrix(1 0 0 1 236.1829 397.5634)" fill="#FFFFFF" font-family="'Raleway-Regular'" font-size="11.0378">JOIN THE COALITION</text>
	<polyline fill="none" stroke="#FFFFFF" stroke-width="1.5" stroke-miterlimit="10" points="359.3,389.9 362.4,393.3 359.3,397 	"/>
	<polyline fill="none" stroke="#FFFFFF" stroke-width="1.5" stroke-miterlimit="10" points="354.4,389.9 357.6,393.3 354.4,397 	"/>
	<g id="Layer_3" display="none">
		<rect x="169" y="388.1" display="inline" fill="none" width="239.9" height="33"/>
		
			<text transform="matrix(1 0 0 1 169.009 393.4917)" display="inline" fill="#FFFFFF" font-family="'Raleway-Regular'" font-size="7.3586">A 5-day hyper-accelerator designed to help Boston social enterprises </text>
		
			<text transform="matrix(1 0 0 1 169.009 402.3222)" display="inline" fill="#FFFFFF" font-family="'Raleway-Regular'" font-size="7.3586">and nonprofits understand the fundraising process and become ready </text>
		
			<text transform="matrix(1 0 0 1 169.009 411.1523)" display="inline" fill="#FFFFFF" font-family="'Raleway-Regular'" font-size="7.3586">to take on investment and grants.</text>
		<rect x="169" y="366.9" display="inline" fill="none" width="250.9" height="21"/>
		
			<text transform="matrix(1 0 0 1 169.009 374.9184)" display="inline" fill="#FFFFFF" font-family="'Raleway-Light'" font-size="11.0378">APPLY TO </text>
		
			<text transform="matrix(1 0 0 1 224.3821 374.9184)" display="inline" fill="#FFFFFF" font-family="'Raleway-SemiBold'" font-size="11.0378">UNREASONABLE LABS BOSTON</text>
	</g>
	<g id="Layer_2_1_">
	</g>
</g>
</svg>
