<?xml version="1.0" encoding="utf-8"?>
<!-- Generator: Adobe Illustrator 18.1.1, SVG Export Plug-In . SVG Version: 6.00 Build 0)  -->
<svg version="1.1" id="Layer_1" xmlns="http://www.w3.org/2000/svg" xmlns:xlink="http://www.w3.org/1999/xlink" x="0px" y="0px"
	 viewBox="0 0 1080 1440" enable-background="new 0 0 1080 1440" xml:space="preserve">
<g id="Layer_2_1_" display="none">
	<rect x="-1.8" y="275.3" display="inline" fill="#020000" stroke="#000000" stroke-miterlimit="10" width="1080" height="885.9"/>
</g>
<g id="Layer_1_1_">
	<polygon fill="#FFFFFF" points="407.3,710.5 409.4,722.5 409.4,722.5 	"/>
	<polygon fill="#FFFFFF" points="352.2,691.2 352.2,698.6 357.4,694.2 	"/>
	<polygon fill="#FFFFFF" points="358.1,664.8 354,658.9 352.2,658.9 352.2,662.1 356.3,668.6 	"/>
	<path fill="#FFFFFF" d="M359.8,706.4l1.1-10.2l-2.6-1.6l-6,5.1v13.8c1.8-1.6,4.2-3.9,6.9-6.4C359.3,706.9,359.6,706.8,359.8,706.4z
		"/>
	<polygon fill="#FFFFFF" points="360.7,658.9 355.8,658.9 358.8,663.2 	"/>
	<path fill="#FFFFFF" d="M369.2,666.5l12.5-5.8l-0.2-1.8h-13.2c0.2,1.6,0.4,3.7,0.7,6.2C369,665.6,369.2,666,369.2,666.5z"/>
	<path fill="#FFFFFF" d="M373.6,683.6l-0.2-0.5l10.4-2.8l-0.4-3.7c-0.7-0.2-3.9-0.7-7.2-2.3c-5.1-2.3-8.1-5.3-8.5-9
		c-0.4-2.6-0.5-4.8-0.7-6.4h-4.2l-2.6,5.6L373.6,683.6z"/>
	<path fill="#FFFFFF" d="M369.9,667.9c2.6,4.4,9.5,6.4,12.4,7.1l-6.9-9.5L369.9,667.9z"/>
	<polygon fill="#FFFFFF" points="352.2,665.6 352.2,688.4 360.7,678.9 	"/>
	<polygon fill="#FFFFFF" points="356.8,685.4 352.4,690.5 358.1,693.7 361.2,691.1 	"/>
	<path fill="#FFFFFF" d="M368.5,699.2c1.4-1.1,2.6-1.9,3.7-2.8l-10.6-16.4l-4.1,4.6l4.9,6.4l-3.5,3l9.4,5.3
		C368.3,699.4,368.3,699.4,368.5,699.2z"/>
	<path fill="#FFFFFF" d="M375.4,694.6c1.1-0.5,1.9-1.1,3-1.6l-19.2-26.8l-1.8,3.9h-0.2l16.4,25.4
		C374.3,695.1,374.8,694.8,375.4,694.6z"/>
	<polygon fill="#FFFFFF" points="376.9,664.6 382.9,673.2 381.9,662.3 	"/>
	<path fill="#FFFFFF" d="M362.6,697.2l-0.7,7.4c1.6-1.4,3-2.6,4.4-3.7c0.4-0.2,0.7-0.5,1.2-1.1L362.6,697.2z"/>
	<path fill="#FFFFFF" d="M384.7,690.5l-0.9-9.4l-10.1,2.8l6,8.5C381.4,691.6,383.1,691.1,384.7,690.5z"/>
	<polygon fill="#FFFFFF" points="402.7,666.2 402.7,658.9 391.2,658.9 391.4,665.1 	"/>
	<path fill="#FFFFFF" d="M386.6,690c2.8-0.7,5.5-1.1,8.1-1.2l1.4-7.2l-10.4-0.5L386.6,690z"/>
	<polygon fill="#FFFFFF" points="407.1,666.5 409.1,658.9 404.3,658.9 404.3,666.2 	"/>
	<polygon fill="#FFFFFF" points="415.9,667.2 418.2,658.9 410.6,658.9 408.7,666.7 	"/>
	<path fill="#FFFFFF" d="M413.5,676.2l-6.9-0.7l-3.5,14.1h0.2l0,0c0,0,0,0,0.2,0c4.2,1.2,8.1,3.4,11.8,6.5l7.1-17.6l-10.9,5.5
		L413.5,676.2z"/>
	<path fill="#FFFFFF" d="M424.9,708.9l6.7-7.6l-6.2-5.6c-3,2.8-5.8,5.5-7.6,7.1L424.9,708.9z"/>
	<polygon fill="#FFFFFF" points="433.1,716.1 433.1,702 426,709.9 	"/>
	<polygon fill="#FFFFFF" points="426.4,668.1 430.1,658.9 419.8,658.9 417.5,667.4 	"/>
	<path fill="#FFFFFF" d="M426.2,695.3l6.2,5.5l0.9-1.1v-12C431.1,690.2,428.6,692.8,426.2,695.3z"/>
	<path fill="#FFFFFF" d="M424.2,677.6l-4.6,11.8l4.9,4.4c3.2-3.2,6.5-6.7,8.6-9.5v-5.1l-8.6-1.8L424.2,677.6z"/>
	<polygon fill="#FFFFFF" points="424.9,676.1 433.1,677.8 433.1,670.2 427.4,669.7 	"/>
	<polygon fill="#FFFFFF" points="431.6,658.9 427.9,668.3 433.1,668.6 433.1,658.9 	"/>
	<path fill="#FFFFFF" d="M416.5,697.4c0.7,0.7,1.4,1.4,2.1,2.1c1.6-1.4,3.5-3.2,5.5-5.1l-4.6-4.2L416.5,697.4z"/>
	<path fill="#FFFFFF" d="M401.6,689.3l3.5-13.9l-6-0.5l-2.8,13.9C398.1,688.8,399.9,688.9,401.6,689.3z"/>
	<polygon fill="#FFFFFF" points="396.2,680.6 398.8,667.2 384.2,666 385.6,680.1 	"/>
	<polygon fill="#FFFFFF" points="421.9,677.1 415.1,676.4 413.6,681.2 	"/>
	<polygon fill="#FFFFFF" points="415.6,668.6 408.4,668.1 406.9,673.9 413.8,674.8 	"/>
	<polygon fill="#FFFFFF" points="415.4,675 423.4,675.7 425.8,669.5 417.2,668.8 	"/>
	<polygon fill="#FFFFFF" points="406.8,667.9 400.4,667.4 399.2,673.2 405.4,673.9 	"/>
	<polygon fill="#FFFFFF" points="384,664.6 390,664.9 389.8,658.9 383.6,658.9 383.5,658.9 	"/>
	<polygon fill="#FFFFFF" points="413.5,726.5 433.1,724.1 433.1,721.9 413.5,723.5 	"/>
	<path fill="#FFFFFF" d="M411.5,722.3V708c-1.2,0.9-2.6,1.6-4.2,2.5l2.1,12L411.5,722.3z"/>
	<path fill="#FFFFFF" d="M416.1,704.5L416.1,704.5c-0.9,0.7-1.8,1.4-2.8,2.3v15l10.2-11.3l-7.1-6.2
		C416.3,704.3,416.1,704.5,416.1,704.5z"/>
	<polygon fill="#FFFFFF" points="411.5,723.9 409.8,723.9 401.6,724.6 402.5,727.8 410.3,726.9 411.5,726.7 	"/>
	<polygon fill="#FFFFFF" points="415.2,721.9 433.1,720.4 433.1,718.6 424.8,711.4 	"/>
	<path fill="#FFFFFF" d="M383.6,722.6l3.2-9.4c-6.9-1.2-13.6-4.4-20.5-9.9c-1.6,1.4-3.2,2.8-4.9,4.2l-1.4,14.1l15.5-1.9L383.6,722.6
		z"/>
	<polygon fill="#FFFFFF" points="352.2,735.4 352.2,739.9 377.6,740.1 380.5,732 	"/>
	<path fill="#FFFFFF" d="M359.5,709.6c-2.8,2.5-5.5,4.9-7.4,6.9v0.2l0,0l0,0v6.2l6.2-0.9L359.5,709.6z"/>
	<polygon fill="#FFFFFF" points="383.3,724.1 375.7,721.4 366.9,722.5 367.8,732 381,730.4 	"/>
	<polygon fill="#FFFFFF" points="366,722.6 352.2,724.4 352.2,733.9 366.9,732.2 	"/>
	<polygon fill="#FFFFFF" points="382.6,731.6 379.6,740.1 393,740.1 393.2,730.4 	"/>
	<polygon fill="#FFFFFF" points="394.1,730.2 393.7,740.1 404.6,740.1 402,729.4 	"/>
	<polygon fill="#FFFFFF" points="402.9,729.4 405.5,740.1 405.4,740.1 411.5,740.1 411.5,728.3 	"/>
	<polygon fill="#FFFFFF" points="433.1,740.1 433.1,729.5 419.6,740.1 	"/>
	<polygon fill="#FFFFFF" points="384.9,724.8 383.1,730.1 393.2,728.8 393.4,725.3 387.9,725.8 	"/>
	<polygon fill="#FFFFFF" points="413.5,740.1 418.2,740.1 433.1,728.5 433.1,725.6 413.5,727.9 	"/>
	<path fill="#FFFFFF" d="M407.3,710.5c-4.1,1.9-9,3.5-14.6,3.5c-1.2,0-2.5,0-3.7-0.2l-3.4,9.7l2.6,0.9l21.4-1.8L407.3,710.5z"/>
	<polygon fill="#FFFFFF" points="394.2,725.3 394.1,728.8 401.6,727.9 400.8,724.6 	"/>
	<path fill="#FFFFFF" d="M408.5,694.2c1.2,1.6,1.9,3.5,2.1,5.5c0.2,2.8-0.9,5.5-1.9,7.6c4.1-2.5,6.9-5.1,8.1-6.5
		C414.2,697.9,411.4,695.8,408.5,694.2z"/>
	<path fill="#FFFFFF" d="M379.6,701.6c-0.2-3.2,1.2-6,2.8-8.1c-1.9,0.9-4.1,1.8-6.2,3c-3.2,1.8-5.8,3.7-7.2,4.9
		c-0.2,0.2-0.5,0.4-0.7,0.5c5.6,4.4,11.3,7.4,16.9,8.6C381.7,708,379.8,705,379.6,701.6z"/>
	<path fill="#FFFFFF" d="M402.2,691.6L402.2,691.6c-2.1-0.5-4.4-0.9-6.7-0.9c-2.6,0-5.3,0.4-8.1,1.1l0,0c0,0-5.6,4.2-5.5,9.5
		c0.2,3.5,3,6.9,8.5,9.9l-0.2,0.2c0.7,0,1.4,0.2,2.3,0.2c4.2,0,8.1-0.9,11.3-2.3l0,0c0,0,5.1-4.6,4.6-9.7
		C408.2,696.9,406.1,694.1,402.2,691.6z M395.3,708.4c-3.5,0-6.5-3-6.5-6.5s3-6.5,6.5-6.5s6.5,3,6.5,6.5S398.8,708.4,395.3,708.4z"
		/>
	<path fill="#FFFFFF" d="M395.3,697.1c-2.6,0-4.8,2.1-4.8,4.8c0,2.6,2.1,4.8,4.8,4.8s4.8-2.1,4.8-4.8
		C400.1,699.2,397.8,697.1,395.3,697.1z"/>
	<polygon fill="#FFFFFF" points="419.6,740.1 433.1,729.5 433.1,728.5 418.2,740.1 	"/>
	<path fill="#FFFFFF" d="M395.3,695.3c-3.5,0-6.5,3-6.5,6.5s3,6.5,6.5,6.5s6.5-3,6.5-6.5C401.6,698.3,398.8,695.3,395.3,695.3z
		 M395.3,706.6c-2.6,0-4.8-2.1-4.8-4.8s2.1-4.8,4.8-4.8s4.8,2.1,4.8,4.8C400.1,704.5,397.8,706.6,395.3,706.6z"/>
	<path fill="#FFFFFF" d="M352.2,716.6L352.2,716.6L352.2,716.6L352.2,716.6z"/>
	<rect x="445.9" y="659.8" fill="none" width="291.4" height="44.1"/>
	<text transform="matrix(1 0 0 1 445.9094 673.3463)" fill="#FFFFFF" font-family="'Raleway-SemiBold'" font-size="20">SAVE THE DATE: </text>
	<text transform="matrix(1 0 0 1 606.4485 673.3463)" fill="#FFFFFF" font-family="'Raleway'" font-size="20">CITY AWAKE FESTIVAL 2015 </text>
	<text transform="matrix(1 0 0 1 445.9094 701.479)" fill="#FFFFFF" font-family="'Raleway'" font-size="20">NOVEMBER 5-14</text>
	<g id="Layer_2" display="none">
		<rect x="417.9" y="709.1" display="inline" fill="none" width="233.6" height="28.1"/>
		
			<text transform="matrix(1 0 0 1 417.7861 725.9371)" display="inline" fill="#FFFFFF" font-family="'Raleway'" font-size="23.1429">JOIN THE COALITION</text>
		<g display="inline">
			<polyline fill="none" stroke="#FFFFFF" stroke-width="1.5" stroke-miterlimit="10" points="400.6,709.9 407.1,717 400.6,724.8 
							"/>
			<polyline fill="none" stroke="#FFFFFF" stroke-width="1.5" stroke-miterlimit="10" points="396.7,709.9 403.4,717 396.7,724.8 
							"/>
		</g>
	</g>
	<g id="Layer_3" display="none">
		<rect x="276.9" y="706.1" display="inline" fill="none" width="502.9" height="69.2"/>
		
			<text transform="matrix(1 0 0 1 276.9431 717.3987)" display="inline" fill="#FFFFFF" font-family="'Raleway'" font-size="15.4286">A 5-day hyper-accelerator designed to help Boston social enterprises </text>
		
			<text transform="matrix(1 0 0 1 276.9431 735.9138)" display="inline" fill="#FFFFFF" font-family="'Raleway'" font-size="15.4286">and nonprofits understand the fundraising process and become ready </text>
		
			<text transform="matrix(1 0 0 1 276.9431 754.4288)" display="inline" fill="#FFFFFF" font-family="'Raleway'" font-size="15.4286">to take on investment and grants.</text>
		<rect x="276.9" y="661.6" display="inline" fill="none" width="526.1" height="43.9"/>
		
			<text transform="matrix(1 0 0 1 276.9431 678.457)" display="inline" fill="#FFFFFF" font-family="'Raleway-Light'" font-size="23.1429">APPLY TO </text>
		
			<text transform="matrix(1 0 0 1 393.0427 678.457)" display="inline" fill="#FFFFFF" font-family="'Raleway-SemiBold'" font-size="23.1429">UNREASONABLE LABS BOSTON</text>
	</g>
</g>
</svg>
