<?xml version="1.0" encoding="utf-8"?>
<!-- Generator: Adobe Illustrator 18.1.1, SVG Export Plug-In . SVG Version: 6.00 Build 0)  -->
<svg version="1.1" id="Layer_1" xmlns="http://www.w3.org/2000/svg" xmlns:xlink="http://www.w3.org/1999/xlink" x="0px" y="0px"
	 viewBox="0 0 1080 1440" enable-background="new 0 0 1080 1440" xml:space="preserve">
<g id="Layer_2_1_" display="none">
	<rect y="95.3" display="inline" fill="#020000" stroke="#000000" stroke-miterlimit="10" width="1080" height="885.9"/>
</g>
<g id="Layer_1_2_">
	<g id="Layer_1_1_" display="none">
		<g display="inline">
			<polygon fill="#FFFFFF" points="305.6,723.9 308.3,739.1 308.3,739.1 			"/>
			<polygon fill="#FFFFFF" points="236.5,699.9 236.5,709.2 243,703.6 			"/>
			<polygon fill="#FFFFFF" points="243.9,666.5 238.8,659.3 236.5,659.3 236.5,663.4 241.8,671.5 			"/>
			<path fill="#FFFFFF" d="M246,718.9l1.2-12.9l-3.4-1.9l-7.6,6.4v17.1c2.1-1.9,5.3-4.9,8.6-7.9C245.5,719.5,245.8,719.3,246,718.9z
				"/>
			<polygon fill="#FFFFFF" points="247.2,659.3 241.1,659.3 244.8,664.6 			"/>
			<path fill="#FFFFFF" d="M257.8,668.8l15.7-7.4l-0.2-2.1h-16.6c0.2,1.9,0.4,4.6,0.9,7.8C257.6,667.8,257.6,668.3,257.8,668.8z"/>
			<path fill="#FFFFFF" d="M263.3,690.4l-0.2-0.5l12.9-3.7l-0.5-4.8c-0.9-0.2-4.9-0.9-9.2-2.8c-6.4-2.8-10.1-6.7-10.8-11.3
				c-0.5-3.4-0.7-6-0.9-7.9h-5.5l-3.4,7.1L263.3,690.4z"/>
			<path fill="#FFFFFF" d="M258.7,670.4c3.2,5.5,11.8,7.9,15.5,8.8l-8.6-12L258.7,670.4z"/>
			<polygon fill="#FFFFFF" points="236.5,667.8 236.5,696.4 247.1,684.2 			"/>
			<polygon fill="#FFFFFF" points="242.3,692.5 236.8,698.8 243.9,702.9 247.8,699.5 			"/>
			<path fill="#FFFFFF" d="M256.8,709.8c1.8-1.4,3.4-2.5,4.6-3.5l-13.2-20.5l-5.1,5.8l6.2,7.9l-4.4,3.7l11.6,6.7
				C256.6,709.9,256.8,709.9,256.8,709.8z"/>
			<path fill="#FFFFFF" d="M265.4,704.1c1.2-0.7,2.5-1.4,3.9-1.9l-24.2-33.7l-2.3,4.9h-0.2l20.6,31.9
				C264.2,704.6,264.9,704.3,265.4,704.1z"/>
			<polygon fill="#FFFFFF" points="267.5,666.4 275.1,677.1 273.7,663.5 			"/>
			<path fill="#FFFFFF" d="M249.7,707.3l-0.9,9.4c1.9-1.8,3.9-3.4,5.5-4.8c0.4-0.4,0.9-0.7,1.4-1.2L249.7,707.3z"/>
			<path fill="#FFFFFF" d="M277.4,698.8l-1.2-11.6l-12.7,3.5l7.6,10.6C273.2,700.4,275.3,699.5,277.4,698.8z"/>
			<polygon fill="#FFFFFF" points="299.8,668.3 299.8,659.3 285.4,659.3 285.7,667.1 			"/>
			<path fill="#FFFFFF" d="M279.7,698.1c3.5-0.9,6.7-1.4,10.2-1.6l1.8-9.2l-13.1-0.5L279.7,698.1z"/>
			<polygon fill="#FFFFFF" points="305.5,668.8 307.8,659.3 301.8,659.3 301.8,668.5 			"/>
			<polygon fill="#FFFFFF" points="316.6,669.7 319.4,659.3 309.7,659.3 307.4,669 			"/>
			<path fill="#FFFFFF" d="M313.4,681l-8.6-0.9l-4.2,17.8c0,0,0.2,0,0.4,0l0,0c0,0,0,0,0.2,0c5.3,1.4,10.2,4.2,14.6,8.1l8.8-22.2
				l-13.8,6.7L313.4,681z"/>
			<path fill="#FFFFFF" d="M327.7,721.9l8.5-9.4l-7.8-7.1c-3.7,3.7-7.2,6.7-9.5,8.8L327.7,721.9z"/>
			<polygon fill="#FFFFFF" points="338.1,731.1 338.1,713.3 329.1,723.2 			"/>
			<polygon fill="#FFFFFF" points="329.6,670.9 334.2,659.3 321.4,659.3 318.5,669.9 			"/>
			<path fill="#FFFFFF" d="M329.3,704.8l7.8,6.9l1.2-1.2v-15.2C335.6,698.5,332.3,701.8,329.3,704.8z"/>
			<path fill="#FFFFFF" d="M327,682.8l-5.8,14.6l6.2,5.5c4.1-4.1,8.3-8.5,10.8-12v-6.2l-10.8-2.1L327,682.8z"/>
			<polygon fill="#FFFFFF" points="327.7,680.6 338.1,682.9 338.1,673.4 330.9,672.9 			"/>
			<polygon fill="#FFFFFF" points="336.4,659.3 331.6,670.9 338.1,671.5 338.1,659.3 			"/>
			<path fill="#FFFFFF" d="M317.1,707.5c0.9,0.9,1.8,1.8,2.6,2.6c1.9-1.8,4.2-4.1,6.7-6.4l-5.8-5.3L317.1,707.5z"/>
			<path fill="#FFFFFF" d="M298.6,697.4l4.2-17.6l-7.6-0.7l-3.5,17.6C294,696.7,296.3,696.9,298.6,697.4z"/>
			<polygon fill="#FFFFFF" points="291.7,686.5 295.1,669.7 276.5,668.3 278.3,685.9 			"/>
			<polygon fill="#FFFFFF" points="324,682.1 315.4,681.2 313.6,687.2 			"/>
			<polygon fill="#FFFFFF" points="316.1,671.5 306.9,670.8 305.1,678.2 313.9,679.1 			"/>
			<polygon fill="#FFFFFF" points="315.7,679.4 325.8,680.3 328.9,672.7 317.8,671.6 			"/>
			<polygon fill="#FFFFFF" points="304.9,670.6 297,669.9 295.6,677.1 303.2,678 			"/>
			<polygon fill="#FFFFFF" points="276.4,666.4 283.8,666.9 283.6,659.3 276,659.3 275.6,659.3 			"/>
			<polygon fill="#FFFFFF" points="313.2,744 338.1,741 338.1,738.4 313.2,740.5 			"/>
			<path fill="#FFFFFF" d="M310.9,738.7v-17.8c-1.6,1.1-3.4,2.1-5.3,3l2.6,15.2L310.9,738.7z"/>
			<path fill="#FFFFFF" d="M316.6,716.5L316.6,716.5c-1.1,0.9-2.1,1.8-3.5,2.8v18.9l12.9-14.3l-9-7.8
				C316.9,716.3,316.8,716.3,316.6,716.5z"/>
			<polygon fill="#FFFFFF" points="310.9,740.6 308.6,740.8 298.6,741.7 299.5,745.8 309.4,744.5 310.9,744.4 			"/>
			<polygon fill="#FFFFFF" points="315.5,738.4 338.1,736.4 338.1,734.1 327.5,724.9 			"/>
			<path fill="#FFFFFF" d="M276,739.2l4.1-11.6c-8.6-1.4-17.1-5.6-25.6-12.4c-1.9,1.8-4.1,3.5-6.2,5.3l-1.8,17.8l19.6-2.5L276,739.2
				z"/>
			<polygon fill="#FFFFFF" points="236.5,755.3 236.5,760.9 268.4,761.1 271.9,750.9 			"/>
			<path fill="#FFFFFF" d="M245.6,722.8c-3.5,3.2-6.7,6.2-9.4,8.6v0.4l0,0l0,0v7.8l7.8-1.1L245.6,722.8z"/>
			<polygon fill="#FFFFFF" points="275.5,741 265.9,737.6 255,739.1 255.9,751.1 272.6,748.9 			"/>
			<polygon fill="#FFFFFF" points="253.9,739.2 236.5,741.5 236.5,753.4 254.8,751.1 			"/>
			<polygon fill="#FFFFFF" points="274.6,750.7 270.9,761.1 287.6,761.1 288,748.9 			"/>
			<polygon fill="#FFFFFF" points="289.1,748.8 288.7,761.1 302.3,761.1 298.9,747.7 			"/>
			<polygon fill="#FFFFFF" points="300,747.5 303.4,761.1 303.2,761.1 310.9,761.1 310.9,746.3 			"/>
			<polygon fill="#FFFFFF" points="338.1,761.1 338.1,747.9 321.2,761.1 			"/>
			<polygon fill="#FFFFFF" points="277.6,741.9 275.3,748.6 288,747 288.2,742.6 281.1,743.3 			"/>
			<polygon fill="#FFFFFF" points="313.2,761.1 319.4,761.1 338.1,746.5 338.1,742.9 313.2,745.9 			"/>
			<path fill="#FFFFFF" d="M305.6,723.9c-4.9,2.5-11.3,4.4-18.4,4.4c-1.6,0-3.2,0-4.8-0.4l-4.2,12.2l3.2,1.2l26.8-2.3L305.6,723.9z"
				/>
			<polygon fill="#FFFFFF" points="289.2,742.6 289.1,747 298.4,745.8 297.5,741.7 			"/>
			<path fill="#FFFFFF" d="M307.2,703.4c1.6,2.1,2.5,4.4,2.6,6.7c0.4,3.7-1.1,6.9-2.5,9.5c5.1-3,8.6-6.5,10.2-8.1
				C314.3,708.4,310.8,705.5,307.2,703.4z"/>
			<path fill="#FFFFFF" d="M270.9,712.9c-0.2-4.1,1.6-7.6,3.7-10.2c-2.5,1.1-5.1,2.3-7.8,3.7c-4.1,2.3-7.2,4.8-9.2,6.2
				c-0.4,0.2-0.5,0.5-0.9,0.7c7.1,5.5,14.1,9.2,21.2,10.9C273.4,720.9,271.1,717,270.9,712.9z"/>
			<path fill="#FFFFFF" d="M299.1,700.4L299.1,700.4c-2.6-0.7-5.5-1.1-8.3-1.1c-3.4,0-6.7,0.5-10.2,1.2l0,0c0,0-7.2,5.5-6.7,12
				c0.2,4.4,3.7,8.6,10.6,12.5l-0.2,0.2c0.9,0,1.8,0.2,2.8,0.2c5.3,0,10.1-1.2,14.1-2.8l0,0c0,0,6.4-5.6,5.6-12.2
				C306.7,706.8,304.1,703.4,299.1,700.4z M290.5,721.2c-4.4,0-8.1-3.7-8.1-8.1c0-4.4,3.7-8.1,8.1-8.1c4.4,0,8.1,3.7,8.1,8.1
				C298.6,717.5,295.1,721.2,290.5,721.2z"/>
			<path fill="#FFFFFF" d="M290.5,707.1c-3.4,0-6,2.6-6,6c0,3.4,2.6,6,6,6c3.4,0,6-2.6,6-6C296.5,709.8,293.8,707.1,290.5,707.1z"/>
			<polygon fill="#FFFFFF" points="321.2,761.1 338.1,747.9 338.1,746.5 319.4,761.1 			"/>
			<path fill="#FFFFFF" d="M290.5,705c-4.4,0-8.1,3.7-8.1,8.1c0,4.4,3.7,8.1,8.1,8.1c4.4,0,8.1-3.7,8.1-8.1
				C298.6,708.7,295.1,705,290.5,705z M290.5,719.1c-3.4,0-6-2.6-6-6c0-3.4,2.6-6,6-6c3.4,0,6,2.6,6,6
				C296.5,716.5,293.8,719.1,290.5,719.1z"/>
			<path fill="#FFFFFF" d="M336.4,659.3h-1.9l-4.6,11.6l-11.1-0.9l3-10.6h-1.9l-3,10.4l-9.2-0.7l2.5-9.7h-2.1l-2.3,9.5l-3.7-0.4
				v-9.2h-1.8v9l-14.1-1.2l-0.2-7.8h-1.8l0.2,7.6l-7.4-0.5l0,0l-0.7-7.1h-0.7h-1.8l0.2,2.1l-15.7,7.4c-0.2-0.5-0.4-1.1-0.4-1.8
				c-0.5-3.2-0.7-5.8-0.9-7.8H255c0.2,1.9,0.5,4.8,0.9,7.9c0.5,4.6,4.2,8.6,10.8,11.3c4.2,1.8,8.3,2.6,9.2,2.8l0.5,4.8l-12.9,3.7
				l0.2,0.5l-16.9-24l3.4-7.1h-2.1l-2.5,5.3l-3.9-5.3h-2.3l5.3,7.4l-2.3,4.9l-5.3-8.1v4.2l10.8,16.6L237,696.7v3.5l6.5,3.7l-6.5,5.6
				v1.4l7.6-6.4l3.4,1.9l-1.2,12.9c-0.4,0.4-0.5,0.5-1.1,0.9c-3.5,3.2-6.5,6-8.6,7.9v1.8v0.4v1.4c2.5-2.5,5.8-5.5,9.4-8.6l-1.6,15.7
				l-7.8,1.1v1.9l17.5-2.3l1.1,12l-19.1,1.9v1.9l35.6-4.2l-3.5,10.2h1.8h0.7l3.7-10.6l13.4-1.6l-0.4,12.2h1.1l0.4-12.4l9.9-1.2
				l3.4,13.4h1.1l0,0l-3.4-13.6l10.8-1.4v15l0,0h2.3l0,0v-15.4l24.9-3v-0.5v-1.2l-24.9,3v-3.7l24.9-2.1v-1.9l-22.6,1.9l12-13.4
				l10.4,9.2v-1.8v-1.6l-9-7.8l9-9.9v-2.8l-1.2,1.2l-7.8-6.9c3.2-3,6.4-6.4,8.8-9.4v-4.2c-2.5,3.5-6.7,7.9-10.8,12l-6.2-5.5
				l5.8-14.6l0.4-0.2l10.8,2.1v-1.9l-10.4-2.1l3.2-7.9l7.2,0.5v-1.9l-6.5-0.5L336.4,659.3z M306.9,670.8l9,0.7l-2.1,7.6l-8.6-0.9
				L306.9,670.8z M315.4,681.2l8.8,0.9l-10.4,5.1L315.4,681.2z M297,669.9l8.1,0.7l-1.8,7.4l-7.8-0.9L297,669.9z M302.8,679.8
				l-4.2,17.6c-2.3-0.5-4.4-0.7-6.9-0.7l3.5-17.6L302.8,679.8z M248.6,716.6l0.9-9.4l6.2,3.4c-0.5,0.5-1.2,0.9-1.4,1.2
				C252.5,713.3,250.8,714.9,248.6,716.6z M301.2,722.8L301.2,722.8c-4.1,1.8-8.8,2.8-14.1,2.8c-0.9,0-1.8,0-2.8-0.2l0.2-0.2
				c-6.7-3.9-10.2-7.9-10.6-12.5c-0.4-6.7,6.7-12,6.7-12l0,0c3.5-0.9,6.9-1.2,10.2-1.2c2.8,0,5.6,0.4,8.3,1.1l0,0
				c4.9,3,7.4,6.4,7.9,10.2C307.6,717,301.4,722.6,301.2,722.8z M257.5,712.6c1.9-1.6,5.1-3.9,9.2-6.2c2.6-1.4,5.3-2.8,7.8-3.7
				c-1.9,2.5-3.9,6.2-3.7,10.2c0.2,4.2,2.5,7.9,6.9,11.5c-7.1-1.8-14.1-5.5-21.2-10.9C256.9,713.3,257.1,712.9,257.5,712.6z
				 M289.8,696.7c-3.4,0-6.7,0.5-10.2,1.6l-1.2-11.3l13.1,0.5L289.8,696.7z M307.4,719.8c1.6-2.5,2.8-5.8,2.5-9.5
				c-0.2-2.5-1.2-4.8-2.6-6.7c3.7,1.9,7.2,4.8,10.4,8.3C316.1,713.3,312.5,716.8,307.4,719.8z M295.1,669.7l-3.4,16.8l-13.4-0.5
				l-1.8-17.6L295.1,669.7z M258.7,670.4l7.1-3.2l8.6,12C270.5,678.4,262.1,675.9,258.7,670.4z M267.5,666.4l6.4-3l1.4,13.8
				L267.5,666.4z M276.2,687.2l1.2,11.6c-2.1,0.7-4.2,1.4-6.4,2.5l-7.6-10.6L276.2,687.2z M242.8,673.2L242.8,673.2l2.5-4.8
				l24.2,33.7c-1.2,0.5-2.5,1.2-3.9,1.9c-0.5,0.2-1.2,0.5-2.1,1.1L242.8,673.2z M243.9,702.9l-7.1-4.1l5.5-6.4l5.5,6.9L243.9,702.9z
				 M244.8,703.4l4.4-3.7l-6.2-7.9l5.1-5.8l13.2,20.5c-1.2,0.9-2.8,2.1-4.6,3.5c0,0-0.2,0-0.2,0.2L244.8,703.4z M246.5,738.4
				l1.8-17.8c2.1-1.8,4.2-3.7,6.2-5.3c8.5,6.7,17.1,10.9,25.6,12.4l-4.1,11.6l-9.9-3.7L246.5,738.4z M255.9,751.1l-1.1-12l10.9-1.4
				l9.5,3.5l-2.6,7.9L255.9,751.1z M288,747l-12.7,1.6l2.3-6.7l3.5,1.2l6.9-0.5V747z M281.5,741.4l-3.2-1.2l4.2-12.2
				c1.6,0.2,3.2,0.4,4.8,0.4c7.2,0,13.4-1.9,18.4-4.4l0,0c1.9-0.9,3.7-1.9,5.3-3v17.8l-2.6,0.2l0,0L281.5,741.4z M289.1,747v-4.4
				l8.3-0.7l1.1,4.1L289.1,747z M299.5,745.8l-1.1-4.1l10.1-0.9l2.3-0.2v3.7l-1.6,0.2L299.5,745.8z M313.2,738v-18.9
				c1.2-1.1,2.5-1.9,3.4-2.8l0,0c0,0,0.2-0.2,0.5-0.5l9,7.8L313.2,738z M328.4,705.7l7.8,7.1l-8.5,9.4l-8.6-7.6
				C321.2,712.4,324.7,709.2,328.4,705.7z M326.5,703.8c-2.5,2.5-4.8,4.6-6.7,6.4c-0.9-0.9-1.8-1.8-2.6-2.6l3.5-9L326.5,703.8z
				 M315.5,706.2c-4.6-3.9-9.5-6.7-14.6-8.1c0,0,0,0-0.2,0l0,0c0,0-0.2,0-0.4,0l4.2-17.8l8.6,0.9l-2.8,9.9l13.8-6.7L315.5,706.2z
				 M325.8,680.3l-10.1-1.1l2.1-7.6l11.1,0.9L325.8,680.3z"/>
			<path fill="#FFFFFF" d="M236.5,731.6L236.5,731.6C236.5,731.8,236.5,731.8,236.5,731.6L236.5,731.6z"/>
		</g>
		<rect x="354" y="660.5" display="inline" fill="none" width="538.4" height="55.4"/>
		
			<text transform="matrix(1 0 0 1 354.0649 677.3644)" display="inline" fill="#FFFFFF" font-family="'Raleway'" font-size="23.1429">SAVE THE DATE: </text>
		
			<text transform="matrix(1 0 0 1 541.2889 677.3644)" display="inline" fill="#FFFFFF" font-family="'Raleway-SemiBold'" font-size="23.1429">FESTIVAL 2015 </text>
		
			<text transform="matrix(1 0 0 1 354.0649 705.1363)" display="inline" fill="#FFFFFF" font-family="'Raleway-SemiBold'" font-size="23.1429">11/5 - 11/14 </text>
		<rect x="352.6" y="742.1" display="inline" fill="none" width="367.2" height="30.9"/>
		
			<text transform="matrix(1 0 0 1 352.5426 753.3979)" display="inline" fill="#FFFFFF" font-family="'Raleway'" font-size="15.4286">Celebating Boston’s Strength: </text>
		
			<text transform="matrix(1 0 0 1 567.6182 753.3979)" display="inline" fill="#FFFFFF" font-family="'Raleway-SemiBold'" font-size="15.4286">Making an Impact</text>
	</g>
	<g id="Layer_2" display="none">
		<rect x="417.9" y="709.1" display="inline" fill="none" width="233.6" height="28.1"/>
		
			<text transform="matrix(1 0 0 1 417.7861 725.9371)" display="inline" fill="#FFFFFF" font-family="'Raleway'" font-size="23.1429">JOIN THE COALITION</text>
		<g display="inline">
			<polyline fill="none" stroke="#FFFFFF" stroke-width="1.5" stroke-miterlimit="10" points="400.6,709.9 407.1,717 400.6,724.8 
							"/>
			<polyline fill="none" stroke="#FFFFFF" stroke-width="1.5" stroke-miterlimit="10" points="396.7,709.9 403.4,717 396.7,724.8 
							"/>
		</g>
	</g>
	<g id="Layer_3">
		<rect x="349.9" y="691.1" fill="none" width="342.9" height="47.1"/>
		<rect x="349.9" y="660.5" fill="none" width="358.6" height="30"/>
		<g>
			<text transform="matrix(1 0 0 1 349.9391 698.7061)" fill="#FFFFFF" font-family="'Raleway'" font-size="20">Find out more. &gt;&gt;</text>
			<text transform="matrix(1 0 0 1 349.9391 670.1587)" fill="#FFFFFF" font-family="'Raleway'" font-size="20">Unreasonable Lab Boston is coming this September: </text>
		</g>
	</g>
</g>
</svg>
