<?xml version="1.0" encoding="utf-8"?>
<!-- Generator: Adobe Illustrator 17.1.0, SVG Export Plug-In . SVG Version: 6.00 Build 0)  -->
<!DOCTYPE svg PUBLIC "-//W3C//DTD SVG 1.1//EN" "http://www.w3.org/Graphics/SVG/1.1/DTD/svg11.dtd">
<svg version="1.1" xmlns="http://www.w3.org/2000/svg" xmlns:xlink="http://www.w3.org/1999/xlink" x="0px" y="0px"
	 viewBox="0 0 612 792" enable-background="new 0 0 612 792" xml:space="preserve">
<g id="Layer_2_1_" display="none">
	<rect x="-1" y="144" display="inline" fill="#020000" stroke="#000000" stroke-miterlimit="10" width="612" height="502"/>
</g>
<g id="Layer_1">
	<polygon fill="#FFFFFF" points="230.8,390.6 232,397.4 232,397.4 	"/>
	<polygon fill="#FFFFFF" points="199.6,379.7 199.6,383.9 202.5,381.4 	"/>
	<polygon fill="#FFFFFF" points="202.9,364.7 200.6,361.4 199.6,361.4 199.6,363.2 201.9,366.9 	"/>
	<path fill="#FFFFFF" d="M203.9,388.3l0.6-5.8l-1.5-0.9l-3.4,2.9v7.8c1-0.9,2.4-2.2,3.9-3.6C203.6,388.6,203.8,388.5,203.9,388.3z"
		/>
	<polygon fill="#FFFFFF" points="204.4,361.4 201.6,361.4 203.3,363.8 	"/>
	<path fill="#FFFFFF" d="M209.2,365.7l7.1-3.3l-0.1-1h-7.5c0.1,0.9,0.2,2.1,0.4,3.5C209.1,365.2,209.2,365.4,209.2,365.7z"/>
	<path fill="#FFFFFF" d="M211.7,375.4l-0.1-0.3l5.9-1.6l-0.2-2.1c-0.4-0.1-2.2-0.4-4.1-1.3c-2.9-1.3-4.6-3-4.8-5.1
		c-0.2-1.5-0.3-2.7-0.4-3.6h-2.4l-1.5,3.2L211.7,375.4z"/>
	<path fill="#FFFFFF" d="M209.6,366.5c1.5,2.5,5.4,3.6,7,4l-3.9-5.4L209.6,366.5z"/>
	<polygon fill="#FFFFFF" points="199.6,365.2 199.6,378.1 204.4,372.7 	"/>
	<polygon fill="#FFFFFF" points="202.2,376.4 199.7,379.3 202.9,381.1 204.7,379.6 	"/>
	<path fill="#FFFFFF" d="M208.8,384.2c0.8-0.6,1.5-1.1,2.1-1.6l-6-9.3l-2.3,2.6l2.8,3.6l-2,1.7l5.3,3
		C208.7,384.3,208.7,384.3,208.8,384.2z"/>
	<path fill="#FFFFFF" d="M212.7,381.6c0.6-0.3,1.1-0.6,1.7-0.9l-10.9-15.2l-1,2.2l-0.1,0l9.3,14.4
		C212.1,381.9,212.4,381.7,212.7,381.6z"/>
	<polygon fill="#FFFFFF" points="213.6,364.6 217,369.5 216.4,363.3 	"/>
	<path fill="#FFFFFF" d="M205.5,383.1l-0.4,4.2c0.9-0.8,1.7-1.5,2.5-2.1c0.2-0.1,0.4-0.3,0.7-0.6L205.5,383.1z"/>
	<path fill="#FFFFFF" d="M218,379.3l-0.5-5.3l-5.7,1.6l3.4,4.8C216.1,379.9,217.1,379.6,218,379.3z"/>
	<polygon fill="#FFFFFF" points="228.2,365.5 228.2,361.4 221.7,361.4 221.8,364.9 	"/>
	<path fill="#FFFFFF" d="M219.1,379c1.6-0.4,3.1-0.6,4.6-0.7l0.8-4.1l-5.9-0.3L219.1,379z"/>
	<polygon fill="#FFFFFF" points="230.7,365.7 231.8,361.4 229.1,361.4 229.1,365.5 	"/>
	<polygon fill="#FFFFFF" points="235.7,366.1 237,361.4 232.7,361.4 231.6,365.8 	"/>
	<path fill="#FFFFFF" d="M234.3,371.2l-3.9-0.4l-2,8c0,0,0.1,0,0.1,0v0c0,0,0,0,0.1,0c2.4,0.7,4.6,1.9,6.7,3.7l4-10l-6.2,3.1
		L234.3,371.2z"/>
	<path fill="#FFFFFF" d="M240.8,389.7l3.8-4.3l-3.5-3.2c-1.7,1.6-3.3,3.1-4.3,4L240.8,389.7z"/>
	<polygon fill="#FFFFFF" points="245.4,393.8 245.4,385.8 241.4,390.3 	"/>
	<polygon fill="#FFFFFF" points="241.6,366.6 243.7,361.4 237.9,361.4 236.6,366.2 	"/>
	<path fill="#FFFFFF" d="M241.5,382l3.5,3.1l0.5-0.6v-6.8C244.3,379.1,242.9,380.6,241.5,382z"/>
	<path fill="#FFFFFF" d="M240.4,372l-2.6,6.7l2.8,2.5c1.8-1.8,3.7-3.8,4.9-5.4v-2.9l-4.9-1L240.4,372z"/>
	<polygon fill="#FFFFFF" points="240.8,371.1 245.4,372.1 245.4,367.8 242.2,367.5 	"/>
	<polygon fill="#FFFFFF" points="244.6,361.4 242.5,366.7 245.4,366.9 245.4,361.4 	"/>
	<path fill="#FFFFFF" d="M236,383.2c0.4,0.4,0.8,0.8,1.2,1.2c0.9-0.8,2-1.8,3.1-2.9l-2.6-2.4L236,383.2z"/>
	<path fill="#FFFFFF" d="M227.6,378.6l2-7.9l-3.4-0.3l-1.6,7.9C225.6,378.3,226.6,378.4,227.6,378.6z"/>
	<polygon fill="#FFFFFF" points="224.5,373.7 226,366.1 217.7,365.4 218.5,373.4 	"/>
	<polygon fill="#FFFFFF" points="239.1,371.7 235.2,371.3 234.4,374 	"/>
	<polygon fill="#FFFFFF" points="235.5,366.9 231.4,366.6 230.6,369.9 234.5,370.4 	"/>
	<polygon fill="#FFFFFF" points="235.4,370.5 239.9,370.9 241.3,367.4 236.4,367 	"/>
	<polygon fill="#FFFFFF" points="230.5,366.5 226.9,366.2 226.2,369.5 229.7,369.9 	"/>
	<polygon fill="#FFFFFF" points="217.6,364.6 221,364.8 220.9,361.4 217.4,361.4 217.3,361.4 	"/>
	<polygon fill="#FFFFFF" points="234.3,399.7 245.4,398.3 245.4,397.1 234.3,398 	"/>
	<path fill="#FFFFFF" d="M233.2,397.3v-8.1c-0.7,0.5-1.5,0.9-2.4,1.4l1.2,6.8L233.2,397.3z"/>
	<path fill="#FFFFFF" d="M235.8,387.2L235.8,387.2c-0.5,0.4-1,0.8-1.6,1.3v8.5l5.8-6.4l-4-3.5C235.9,387.1,235.8,387.2,235.8,387.2z
		"/>
	<polygon fill="#FFFFFF" points="233.2,398.2 232.2,398.2 227.6,398.6 228.1,400.4 232.5,399.9 233.2,399.8 	"/>
	<polygon fill="#FFFFFF" points="235.3,397.1 245.4,396.2 245.4,395.2 240.7,391.1 	"/>
	<path fill="#FFFFFF" d="M217.4,397.5l1.8-5.3c-3.9-0.7-7.7-2.5-11.6-5.6c-0.9,0.8-1.8,1.6-2.8,2.4l-0.8,8l8.8-1.1L217.4,397.5z"/>
	<polygon fill="#FFFFFF" points="199.6,404.7 199.6,407.3 214,407.4 215.6,402.8 	"/>
	<path fill="#FFFFFF" d="M203.7,390.1c-1.6,1.4-3.1,2.8-4.2,3.9v0.1l0,0l0,0v3.5l3.5-0.5L203.7,390.1z"/>
	<polygon fill="#FFFFFF" points="217.2,398.3 212.9,396.8 207.9,397.4 208.4,402.8 215.9,401.9 	"/>
	<polygon fill="#FFFFFF" points="207.4,397.5 199.6,398.5 199.6,403.9 207.9,402.9 	"/>
	<polygon fill="#FFFFFF" points="216.8,402.6 215.1,407.4 222.7,407.4 222.8,401.9 	"/>
	<polygon fill="#FFFFFF" points="223.3,401.8 223.1,407.4 229.3,407.4 227.8,401.3 	"/>
	<polygon fill="#FFFFFF" points="228.3,401.3 229.8,407.4 229.7,407.4 233.2,407.4 233.2,400.7 	"/>
	<polygon fill="#FFFFFF" points="245.4,407.4 245.4,401.4 237.8,407.4 	"/>
	<polygon fill="#FFFFFF" points="218.1,398.7 217.1,401.7 222.8,401 222.9,399 219.8,399.3 	"/>
	<polygon fill="#FFFFFF" points="234.3,407.4 237,407.4 245.4,400.8 245.4,399.2 234.3,400.5 	"/>
	<path fill="#FFFFFF" d="M230.8,390.6c-2.3,1.1-5.1,2-8.3,2c-0.7,0-1.4,0-2.1-0.1l-1.9,5.5l1.5,0.5l12.1-1L230.8,390.6z"/>
	<polygon fill="#FFFFFF" points="223.4,399 223.3,401 227.6,400.5 227.1,398.6 	"/>
	<path fill="#FFFFFF" d="M231.5,381.4c0.7,0.9,1.1,2,1.2,3.1c0.1,1.6-0.5,3.1-1.1,4.3c2.3-1.4,3.9-2.9,4.6-3.7
		C234.7,383.5,233.1,382.3,231.5,381.4z"/>
	<path fill="#FFFFFF" d="M215.1,385.6c-0.1-1.8,0.7-3.4,1.6-4.6c-1.1,0.5-2.3,1-3.5,1.7c-1.8,1-3.3,2.1-4.1,2.8
		c-0.1,0.1-0.3,0.2-0.4,0.3c3.2,2.5,6.4,4.2,9.6,4.9C216.3,389.2,215.2,387.5,215.1,385.6z"/>
	<path fill="#FFFFFF" d="M227.9,379.9L227.9,379.9c-1.2-0.3-2.5-0.5-3.8-0.5c-1.5,0-3,0.2-4.6,0.6l0,0c0,0-3.2,2.4-3.1,5.4
		c0.1,2,1.7,3.9,4.8,5.6l-0.1,0.1c0.4,0,0.8,0.1,1.3,0.1c2.4,0,4.6-0.5,6.4-1.3l0,0c0,0,2.9-2.6,2.6-5.5
		C231.3,382.9,230.1,381.3,227.9,379.9z M224,389.4c-2,0-3.7-1.7-3.7-3.7c0-2,1.7-3.7,3.7-3.7c2,0,3.7,1.7,3.7,3.7
		S226,389.4,224,389.4z"/>
	<path fill="#FFFFFF" d="M224,383c-1.5,0-2.7,1.2-2.7,2.7s1.2,2.7,2.7,2.7c1.5,0,2.7-1.2,2.7-2.7S225.4,383,224,383z"/>
	<polygon fill="#FFFFFF" points="237.8,407.4 245.4,401.4 245.4,400.8 237,407.4 	"/>
	<path fill="#FFFFFF" d="M224,382c-2,0-3.7,1.7-3.7,3.7s1.7,3.7,3.7,3.7c2,0,3.7-1.7,3.7-3.7C227.6,383.7,226,382,224,382z
		 M224,388.4c-1.5,0-2.7-1.2-2.7-2.7c0-1.5,1.2-2.7,2.7-2.7c1.5,0,2.7,1.2,2.7,2.7C226.7,387.2,225.4,388.4,224,388.4z"/>
	<path fill="#FFFFFF" d="M199.6,394.1L199.6,394.1C199.6,394.1,199.6,394.1,199.6,394.1L199.6,394.1z"/>
	<rect x="252.7" y="361.9" fill="none" width="165.1" height="25"/>
	<text transform="matrix(1 0 0 1 252.6821 369.563)" fill="#FFFFFF" font-family="'Raleway-Regular'" font-size="10.4513">SAVE THE DATE: </text>
	<text transform="matrix(1 0 0 1 337.2324 369.563)" fill="#FFFFFF" font-family="'Raleway-SemiBold'" font-size="10.4513">FESTIVAL 2015 </text>
	<text transform="matrix(1 0 0 1 252.6821 382.105)" fill="#FFFFFF" font-family="'Raleway-SemiBold'" font-size="10.4513">11/5 - 11/14 </text>
	<rect x="252" y="398.8" fill="none" width="165.8" height="13.9"/>
	<text transform="matrix(1 0 0 1 251.9951 403.9004)" fill="#FFFFFF" font-family="'Raleway-Regular'" font-size="6.9675">Celebating Boston’s Strength: </text>
	<text transform="matrix(1 0 0 1 349.1221 403.9004)" fill="#FFFFFF" font-family="'Raleway-SemiBold'" font-size="6.9675">Making an Impact</text>
	<g id="Layer_2" display="none">
		<rect x="236.8" y="389.8" display="inline" fill="none" width="132.4" height="15.9"/>
		
			<text transform="matrix(1 0 0 1 236.7456 399.3645)" display="inline" fill="#FFFFFF" font-family="'Raleway-Regular'" font-size="13.1143">JOIN THE COALITION</text>
		<g display="inline">
			<polyline fill="none" stroke="#FFFFFF" stroke-width="1.5" stroke-miterlimit="10" points="227,390.3 230.7,394.3 227,398.7 			
				"/>
			<polyline fill="none" stroke="#FFFFFF" stroke-width="1.5" stroke-miterlimit="10" points="224.8,390.3 228.6,394.3 224.8,398.7 
							"/>
		</g>
	</g>
	<g id="Layer_3" display="none">
		<rect x="156.9" y="388.1" display="inline" fill="none" width="285" height="39.2"/>
		
			<text transform="matrix(1 0 0 1 156.9346 394.5263)" display="inline" fill="#FFFFFF" font-family="'Raleway-Regular'" font-size="8.7429">A 5-day hyper-accelerator designed to help Boston social enterprises </text>
		
			<text transform="matrix(1 0 0 1 156.9346 405.0178)" display="inline" fill="#FFFFFF" font-family="'Raleway-Regular'" font-size="8.7429">and nonprofits understand the fundraising process and become ready </text>
		
			<text transform="matrix(1 0 0 1 156.9346 415.5098)" display="inline" fill="#FFFFFF" font-family="'Raleway-Regular'" font-size="8.7429">to take on investment and grants.</text>
		<rect x="156.9" y="362.9" display="inline" fill="none" width="298.1" height="24.9"/>
		
			<text transform="matrix(1 0 0 1 156.9346 372.4592)" display="inline" fill="#FFFFFF" font-family="'Raleway-Light'" font-size="13.1143">APPLY TO </text>
		
			<text transform="matrix(1 0 0 1 222.7246 372.4592)" display="inline" fill="#FFFFFF" font-family="'Raleway-SemiBold'" font-size="13.1143">UNREASONABLE LABS BOSTON</text>
	</g>
</g>
</svg>
