<?xml version="1.0" encoding="utf-8"?>
<!-- Generator: Adobe Illustrator 17.1.0, SVG Export Plug-In . SVG Version: 6.00 Build 0)  -->
<!DOCTYPE svg PUBLIC "-//W3C//DTD SVG 1.1//EN" "http://www.w3.org/Graphics/SVG/1.1/DTD/svg11.dtd">
<svg version="1.1" xmlns="http://www.w3.org/2000/svg" xmlns:xlink="http://www.w3.org/1999/xlink" x="0px" y="0px"
	 viewBox="0 0 612 792" enable-background="new 0 0 612 792" xml:space="preserve">
<g id="Layer_2_1_" display="none">
	<rect y="42" display="inline" fill="#020000" stroke="#000000" stroke-miterlimit="10" width="612" height="502"/>
</g>
<g id="Layer_1">
	<g id="Layer_1_1_" display="none">
		<g display="inline">
			<polygon fill="#FFFFFF" points="173.2,398.2 174.7,406.8 174.7,406.8 			"/>
			<polygon fill="#FFFFFF" points="134,384.6 134,389.9 137.7,386.7 			"/>
			<polygon fill="#FFFFFF" points="138.2,365.7 135.3,361.6 134,361.6 134,363.9 137,368.5 			"/>
			<path fill="#FFFFFF" d="M139.4,395.4l0.7-7.3l-1.9-1.1l-4.3,3.6v9.7c1.2-1.1,3-2.8,4.9-4.5C139.1,395.7,139.3,395.6,139.4,395.4z
				"/>
			<polygon fill="#FFFFFF" points="140.1,361.6 136.6,361.6 138.7,364.6 			"/>
			<path fill="#FFFFFF" d="M146.1,367l8.9-4.2l-0.1-1.2h-9.4c0.1,1.1,0.2,2.6,0.5,4.4C146,366.4,146,366.7,146.1,367z"/>
			<path fill="#FFFFFF" d="M149.2,379.2l-0.1-0.3l7.3-2.1l-0.3-2.7c-0.5-0.1-2.8-0.5-5.2-1.6c-3.6-1.6-5.7-3.8-6.1-6.4
				c-0.3-1.9-0.4-3.4-0.5-4.5h-3.1l-1.9,4L149.2,379.2z"/>
			<path fill="#FFFFFF" d="M146.6,367.9c1.8,3.1,6.7,4.5,8.8,5l-4.9-6.8L146.6,367.9z"/>
			<polygon fill="#FFFFFF" points="134,366.4 134,382.6 140,375.7 			"/>
			<polygon fill="#FFFFFF" points="137.3,380.4 134.2,384 138.2,386.3 140.4,384.4 			"/>
			<path fill="#FFFFFF" d="M145.5,390.2c1-0.8,1.9-1.4,2.6-2l-7.5-11.6l-2.9,3.3l3.5,4.5l-2.5,2.1l6.6,3.8
				C145.4,390.3,145.5,390.3,145.5,390.2z"/>
			<path fill="#FFFFFF" d="M150.4,387c0.7-0.4,1.4-0.8,2.2-1.1l-13.7-19.1l-1.3,2.8l-0.1,0l11.7,18.1
				C149.7,387.3,150.1,387.1,150.4,387z"/>
			<polygon fill="#FFFFFF" points="151.6,365.6 155.9,371.7 155.1,364 			"/>
			<path fill="#FFFFFF" d="M141.5,388.8l-0.5,5.3c1.1-1,2.2-1.9,3.1-2.7c0.2-0.2,0.5-0.4,0.8-0.7L141.5,388.8z"/>
			<path fill="#FFFFFF" d="M157.2,384l-0.7-6.6l-7.2,2l4.3,6C154.8,384.9,156,384.4,157.2,384z"/>
			<polygon fill="#FFFFFF" points="169.9,366.7 169.9,361.6 161.7,361.6 161.9,366 			"/>
			<path fill="#FFFFFF" d="M158.5,383.6c2-0.5,3.8-0.8,5.8-0.9l1-5.2l-7.4-0.3L158.5,383.6z"/>
			<polygon fill="#FFFFFF" points="173.1,367 174.4,361.6 171,361.6 171,366.8 			"/>
			<polygon fill="#FFFFFF" points="179.4,367.5 181,361.6 175.5,361.6 174.2,367.1 			"/>
			<path fill="#FFFFFF" d="M177.6,373.9l-4.9-0.5l-2.4,10.1c0,0,0.1,0,0.2,0v0c0,0,0,0,0.1,0c3,0.8,5.8,2.4,8.3,4.6l5-12.6l-7.8,3.8
				L177.6,373.9z"/>
			<path fill="#FFFFFF" d="M185.7,397.1l4.8-5.3l-4.4-4c-2.1,2.1-4.1,3.8-5.4,5L185.7,397.1z"/>
			<polygon fill="#FFFFFF" points="191.6,402.3 191.6,392.2 186.5,397.8 			"/>
			<polygon fill="#FFFFFF" points="186.8,368.2 189.4,361.6 182.1,361.6 180.5,367.6 			"/>
			<path fill="#FFFFFF" d="M186.6,387.4l4.4,3.9l0.7-0.7v-8.6C190.2,383.8,188.3,385.7,186.6,387.4z"/>
			<path fill="#FFFFFF" d="M185.3,374.9l-3.3,8.3l3.5,3.1c2.3-2.3,4.7-4.8,6.1-6.8V376l-6.1-1.2L185.3,374.9z"/>
			<polygon fill="#FFFFFF" points="185.7,373.7 191.6,375 191.6,369.6 187.5,369.3 			"/>
			<polygon fill="#FFFFFF" points="190.6,361.6 187.9,368.2 191.6,368.5 191.6,361.6 			"/>
			<path fill="#FFFFFF" d="M179.7,388.9c0.5,0.5,1,1,1.5,1.5c1.1-1,2.4-2.3,3.8-3.6l-3.3-3L179.7,388.9z"/>
			<path fill="#FFFFFF" d="M169.2,383.2l2.4-10l-4.3-0.4l-2,10C166.6,382.8,167.9,382.9,169.2,383.2z"/>
			<polygon fill="#FFFFFF" points="165.3,377 167.2,367.5 156.7,366.7 157.7,376.7 			"/>
			<polygon fill="#FFFFFF" points="183.6,374.5 178.7,374 177.7,377.4 			"/>
			<polygon fill="#FFFFFF" points="179.1,368.5 173.9,368.1 172.9,372.3 177.9,372.8 			"/>
			<polygon fill="#FFFFFF" points="178.9,373 184.6,373.5 186.4,369.2 180.1,368.6 			"/>
			<polygon fill="#FFFFFF" points="172.8,368 168.3,367.6 167.5,371.7 171.8,372.2 			"/>
			<polygon fill="#FFFFFF" points="156.6,365.6 160.8,365.9 160.7,361.6 156.4,361.6 156.2,361.6 			"/>
			<polygon fill="#FFFFFF" points="177.5,409.6 191.6,407.9 191.6,406.4 177.5,407.6 			"/>
			<path fill="#FFFFFF" d="M176.2,406.6v-10.1c-0.9,0.6-1.9,1.2-3,1.7l1.5,8.6L176.2,406.6z"/>
			<path fill="#FFFFFF" d="M179.4,394L179.4,394c-0.6,0.5-1.2,1-2,1.6v10.7l7.3-8.1l-5.1-4.4C179.6,393.9,179.5,393.9,179.4,394z"/>
			<polygon fill="#FFFFFF" points="176.2,407.7 174.9,407.8 169.2,408.3 169.7,410.6 175.3,409.9 176.2,409.8 			"/>
			<polygon fill="#FFFFFF" points="178.8,406.4 191.6,405.3 191.6,404 185.6,398.8 			"/>
			<path fill="#FFFFFF" d="M156.4,406.9l2.3-6.6c-4.9-0.8-9.7-3.2-14.5-7c-1.1,1-2.3,2-3.5,3l-1,10.1l11.1-1.4L156.4,406.9z"/>
			<polygon fill="#FFFFFF" points="134,416 134,419.2 152.1,419.3 154.1,413.5 			"/>
			<path fill="#FFFFFF" d="M139.2,397.6c-2,1.8-3.8,3.5-5.3,4.9v0.2l0,0l0,0v4.4l4.4-0.6L139.2,397.6z"/>
			<polygon fill="#FFFFFF" points="156.1,407.9 150.7,406 144.5,406.8 145,413.6 154.5,412.4 			"/>
			<polygon fill="#FFFFFF" points="143.9,406.9 134,408.2 134,414.9 144.4,413.6 			"/>
			<polygon fill="#FFFFFF" points="155.6,413.4 153.5,419.3 163,419.3 163.2,412.4 			"/>
			<polygon fill="#FFFFFF" points="163.8,412.3 163.6,419.3 171.3,419.3 169.4,411.7 			"/>
			<polygon fill="#FFFFFF" points="170,411.6 171.9,419.3 171.8,419.3 176.2,419.3 176.2,410.9 			"/>
			<polygon fill="#FFFFFF" points="191.6,419.3 191.6,411.8 182,419.3 			"/>
			<polygon fill="#FFFFFF" points="157.3,408.4 156,412.2 163.2,411.3 163.3,408.8 159.3,409.2 			"/>
			<polygon fill="#FFFFFF" points="177.5,419.3 181,419.3 191.6,411 191.6,409 177.5,410.7 			"/>
			<path fill="#FFFFFF" d="M173.2,398.2c-2.8,1.4-6.4,2.5-10.4,2.5c-0.9,0-1.8,0-2.7-0.2l-2.4,6.9l1.8,0.7l15.2-1.3L173.2,398.2z"/>
			<polygon fill="#FFFFFF" points="163.9,408.8 163.8,411.3 169.1,410.6 168.6,408.3 			"/>
			<path fill="#FFFFFF" d="M174.1,386.6c0.9,1.2,1.4,2.5,1.5,3.8c0.2,2.1-0.6,3.9-1.4,5.4c2.9-1.7,4.9-3.7,5.8-4.6
				C178.1,389.4,176.1,387.8,174.1,386.6z"/>
			<path fill="#FFFFFF" d="M153.5,392c-0.1-2.3,0.9-4.3,2.1-5.8c-1.4,0.6-2.9,1.3-4.4,2.1c-2.3,1.3-4.1,2.7-5.2,3.5
				c-0.2,0.1-0.3,0.3-0.5,0.4c4,3.1,8,5.2,12,6.2C154.9,396.5,153.6,394.3,153.5,392z"/>
			<path fill="#FFFFFF" d="M169.5,384.9L169.5,384.9c-1.5-0.4-3.1-0.6-4.7-0.6c-1.9,0-3.8,0.3-5.8,0.7l0,0c0,0-4.1,3.1-3.8,6.8
				c0.1,2.5,2.1,4.9,6,7.1l-0.1,0.1c0.5,0,1,0.1,1.6,0.1c3,0,5.7-0.7,8-1.6l0,0c0,0,3.6-3.2,3.2-6.9
				C173.8,388.5,172.3,386.6,169.5,384.9z M164.6,396.7c-2.5,0-4.6-2.1-4.6-4.6s2.1-4.6,4.6-4.6c2.5,0,4.6,2.1,4.6,4.6
				C169.2,394.6,167.2,396.7,164.6,396.7z"/>
			<path fill="#FFFFFF" d="M164.6,388.7c-1.9,0-3.4,1.5-3.4,3.4s1.5,3.4,3.4,3.4c1.9,0,3.4-1.5,3.4-3.4S166.5,388.7,164.6,388.7z"/>
			<polygon fill="#FFFFFF" points="182,419.3 191.6,411.8 191.6,411 181,419.3 			"/>
			<path fill="#FFFFFF" d="M164.6,387.5c-2.5,0-4.6,2.1-4.6,4.6c0,2.5,2.1,4.6,4.6,4.6c2.5,0,4.6-2.1,4.6-4.6
				C169.2,389.6,167.2,387.5,164.6,387.5z M164.6,395.5c-1.9,0-3.4-1.5-3.4-3.4c0-1.9,1.5-3.4,3.4-3.4c1.9,0,3.4,1.5,3.4,3.4
				C168,394,166.5,395.5,164.6,395.5z"/>
			<path fill="#FFFFFF" d="M190.6,361.6h-1.1l-2.6,6.6l-6.3-0.5l1.7-6h-1.1l-1.7,5.9l-5.2-0.4l1.4-5.5h-1.2l-1.3,5.4l-2.1-0.2v-5.2
				h-1v5.1l-8-0.7l-0.1-4.4h-1l0.1,4.3l-4.2-0.3h0l-0.4-4h-0.4h-1l0.1,1.2l-8.9,4.2c-0.1-0.3-0.2-0.6-0.2-1
				c-0.3-1.8-0.4-3.3-0.5-4.4h-1.1c0.1,1.1,0.3,2.7,0.5,4.5c0.3,2.6,2.4,4.9,6.1,6.4c2.4,1,4.7,1.5,5.2,1.6l0.3,2.7l-7.3,2.1
				l0.1,0.3l-9.6-13.6l1.9-4h-1.2l-1.4,3l-2.2-3h-1.3l3,4.2l-1.3,2.8l-3-4.6v2.4l6.1,9.4l-6.1,6.9v2l3.7,2.1l-3.7,3.2v0.8l4.3-3.6
				l1.9,1.1l-0.7,7.3c-0.2,0.2-0.3,0.3-0.6,0.5c-2,1.8-3.7,3.4-4.9,4.5v1v0.2v0.8c1.4-1.4,3.3-3.1,5.3-4.9l-0.9,8.9l-4.4,0.6v1.1
				l9.9-1.3l0.6,6.8L134,415v1.1l20.2-2.4l-2,5.8h1h0.4l2.1-6l7.6-0.9l-0.2,6.9h0.6l0.2-7l5.6-0.7l1.9,7.6h0.6h0l-1.9-7.7l6.1-0.8
				v8.5v0h1.3v0v-8.7l14.1-1.7v-0.3v-0.7l-14.1,1.7v-2.1l14.1-1.2v-1.1l-12.8,1.1l6.8-7.6l5.9,5.2V403v-0.9l-5.1-4.4l5.1-5.6v-1.6
				l-0.7,0.7l-4.4-3.9c1.8-1.7,3.6-3.6,5-5.3v-2.4c-1.4,2-3.8,4.5-6.1,6.8l-3.5-3.1l3.3-8.3l0.2-0.1l6.1,1.2v-1.1l-5.9-1.2l1.8-4.5
				l4.1,0.3v-1.1l-3.7-0.3L190.6,361.6z M173.9,368.1l5.1,0.4l-1.2,4.3l-4.9-0.5L173.9,368.1z M178.7,374l5,0.5l-5.9,2.9L178.7,374z
				 M168.3,367.6l4.6,0.4l-1,4.2l-4.4-0.5L168.3,367.6z M171.6,373.2l-2.4,10c-1.3-0.3-2.5-0.4-3.9-0.4l2-10L171.6,373.2z
				 M140.9,394.1l0.5-5.3l3.5,1.9c-0.3,0.3-0.7,0.5-0.8,0.7C143.1,392.2,142.1,393.1,140.9,394.1z M170.7,397.6L170.7,397.6
				c-2.3,1-5,1.6-8,1.6c-0.5,0-1,0-1.6-0.1l0.1-0.1c-3.8-2.2-5.8-4.5-6-7.1c-0.2-3.8,3.8-6.8,3.8-6.8l0,0c2-0.5,3.9-0.7,5.8-0.7
				c1.6,0,3.2,0.2,4.7,0.6l0,0c2.8,1.7,4.2,3.6,4.5,5.8C174.3,394.3,170.8,397.5,170.7,397.6z M145.9,391.8c1.1-0.9,2.9-2.2,5.2-3.5
				c1.5-0.8,3-1.6,4.4-2.1c-1.1,1.4-2.2,3.5-2.1,5.8c0.1,2.4,1.4,4.5,3.9,6.5c-4-1-8-3.1-12-6.2C145.6,392.2,145.7,392,145.9,391.8z
				 M164.2,382.8c-1.9,0-3.8,0.3-5.8,0.9l-0.7-6.4l7.4,0.3L164.2,382.8z M174.2,395.9c0.9-1.4,1.6-3.3,1.4-5.4
				c-0.1-1.4-0.7-2.7-1.5-3.8c2.1,1.1,4.1,2.7,5.9,4.7C179.1,392.2,177.1,394.2,174.2,395.9z M167.2,367.5l-1.9,9.5l-7.6-0.3l-1-10
				L167.2,367.5z M146.6,367.9l4-1.8l4.9,6.8C153.3,372.4,148.5,371,146.6,367.9z M151.6,365.6l3.6-1.7l0.8,7.8L151.6,365.6z
				 M156.5,377.4l0.7,6.6c-1.2,0.4-2.4,0.8-3.6,1.4l-4.3-6L156.5,377.4z M137.6,369.5L137.6,369.5l1.4-2.7l13.7,19.1
				c-0.7,0.3-1.4,0.7-2.2,1.1c-0.3,0.1-0.7,0.3-1.2,0.6L137.6,369.5z M138.2,386.3l-4-2.3l3.1-3.6l3.1,3.9L138.2,386.3z
				 M138.7,386.6l2.5-2.1l-3.5-4.5l2.9-3.3l7.5,11.6c-0.7,0.5-1.6,1.2-2.6,2c0,0-0.1,0-0.1,0.1L138.7,386.6z M139.7,406.4l1-10.1
				c1.2-1,2.4-2.1,3.5-3c4.8,3.8,9.7,6.2,14.5,7l-2.3,6.6l-5.6-2.1L139.7,406.4z M145,413.6l-0.6-6.8l6.2-0.8l5.4,2l-1.5,4.5
				L145,413.6z M163.2,411.3l-7.2,0.9l1.3-3.8l2,0.7l3.9-0.3L163.2,411.3z M159.5,408.1l-1.8-0.7l2.4-6.9c0.9,0.1,1.8,0.2,2.7,0.2
				c4.1,0,7.6-1.1,10.4-2.5l0,0c1.1-0.5,2.1-1.1,3-1.7v10.1l-1.5,0.1l0,0L159.5,408.1z M163.8,411.3l0-2.5l4.7-0.4l0.6,2.3
				L163.8,411.3z M169.7,410.6l-0.6-2.3l5.7-0.5l1.3-0.1v2.1l-0.9,0.1L169.7,410.6z M177.5,406.2v-10.7c0.7-0.6,1.4-1.1,1.9-1.6v0
				c0,0,0.1-0.1,0.3-0.3l5.1,4.4L177.5,406.2z M186.1,387.9l4.4,4l-4.8,5.3l-4.9-4.3C182,391.7,184,389.9,186.1,387.9z M185,386.8
				c-1.4,1.4-2.7,2.6-3.8,3.6c-0.5-0.5-1-1-1.5-1.5l2-5.1L185,386.8z M178.8,388.2c-2.6-2.2-5.4-3.8-8.3-4.6c0,0,0,0-0.1,0v0
				c0,0-0.1,0-0.2,0l2.4-10.1l4.9,0.5l-1.6,5.6l7.8-3.8L178.8,388.2z M184.6,373.5l-5.7-0.6l1.2-4.3l6.3,0.5L184.6,373.5z"/>
			<path fill="#FFFFFF" d="M134,402.6L134,402.6C134,402.7,134,402.7,134,402.6L134,402.6z"/>
		</g>
		<rect x="200.6" y="362.3" display="inline" fill="none" width="305.1" height="31.4"/>
		
			<text transform="matrix(1 0 0 1 200.6369 371.8399)" display="inline" fill="#FFFFFF" font-family="'Raleway-Regular'" font-size="13.1143">SAVE THE DATE: </text>
		
			<text transform="matrix(1 0 0 1 306.7308 371.8399)" display="inline" fill="#FFFFFF" font-family="'Raleway-SemiBold'" font-size="13.1143">FESTIVAL 2015 </text>
		
			<text transform="matrix(1 0 0 1 200.6369 387.5773)" display="inline" fill="#FFFFFF" font-family="'Raleway-SemiBold'" font-size="13.1143">11/5 - 11/14 </text>
		<rect x="199.8" y="408.5" display="inline" fill="none" width="208.1" height="17.5"/>
		
			<text transform="matrix(1 0 0 1 199.7742 414.9259)" display="inline" fill="#FFFFFF" font-family="'Raleway-Regular'" font-size="8.7429">Celebating Boston’s Strength: </text>
		
			<text transform="matrix(1 0 0 1 321.6504 414.9259)" display="inline" fill="#FFFFFF" font-family="'Raleway-SemiBold'" font-size="8.7429">Making an Impact</text>
	</g>
	<g id="Layer_2" display="none">
		<rect x="236.8" y="389.8" display="inline" fill="none" width="132.4" height="15.9"/>
		
			<text transform="matrix(1 0 0 1 236.7456 399.3645)" display="inline" fill="#FFFFFF" font-family="'Raleway-Regular'" font-size="13.1143">JOIN THE COALITION</text>
		<g display="inline">
			<polyline fill="none" stroke="#FFFFFF" stroke-width="1.5" stroke-miterlimit="10" points="227,390.3 230.7,394.3 227,398.7 			
				"/>
			<polyline fill="none" stroke="#FFFFFF" stroke-width="1.5" stroke-miterlimit="10" points="224.8,390.3 228.6,394.3 224.8,398.7 
							"/>
		</g>
	</g>
	<g id="Layer_3">
		<rect x="198.3" y="379.6" fill="none" width="194.3" height="26.7"/>
		<text transform="matrix(1 0 0 1 198.2988 383.9337)" fill="#FFFFFF" font-family="'Raleway-Regular'" font-size="5.96">A 5-day hyper-accelerator designed to help Boston social enterprises </text>
		<text transform="matrix(1 0 0 1 198.2988 391.0855)" fill="#FFFFFF" font-family="'Raleway-Regular'" font-size="5.96">and nonprofits understand the fundraising process and become ready </text>
		<text transform="matrix(1 0 0 1 198.2988 398.2374)" fill="#FFFFFF" font-family="'Raleway-Regular'" font-size="5.96">to take on investment and grants.</text>
		<rect x="198.3" y="362.3" fill="none" width="203.2" height="17"/>
		<text transform="matrix(1 0 0 1 198.2988 368.8902)" fill="#FFFFFF" font-family="'Raleway-Light'" font-size="8.94">APPLY TO </text>
		<text transform="matrix(1 0 0 1 243.148 368.8902)" fill="#FFFFFF" font-family="'Raleway-SemiBold'" font-size="8.94">UNREASONABLE LABS BOSTON</text>
	</g>
</g>
</svg>
